<?xml version="1.0" encoding="utf-8"?>
<!-- Generator: Adobe Illustrator 22.1.0, SVG Export Plug-In . SVG Version: 6.00 Build 0)  -->
<svg version="1.1" id="Layer_1" xmlns="http://www.w3.org/2000/svg" xmlns:xlink="http://www.w3.org/1999/xlink" x="0px" y="0px"
	 viewBox="0 0 500 296.6" style="enable-background:new 0 0 500 296.6;" xml:space="preserve">
<style type="text/css">
	.st0{fill:#ED6C48;}
	.st1{opacity:0.7;fill:#FFFFFF;enable-background:new    ;}
	.st2{fill:#FFFFFF;}
	.st3{fill:#263238;stroke:#263238;stroke-linecap:round;stroke-linejoin:round;}
	.st4{fill:#FFFFFF;stroke:#263238;stroke-linecap:round;stroke-linejoin:round;}
	.st5{fill:#ED6C48;stroke:#263238;stroke-linecap:round;stroke-linejoin:round;}
	.st6{fill:none;stroke:#FFFFFF;stroke-width:0.5;stroke-linecap:round;stroke-linejoin:round;}
	.st7{fill:none;stroke:#263238;stroke-linecap:round;stroke-linejoin:round;}
	.st8{fill:#263238;}
	.st9{enable-background:new    ;}
</style>
<g id="freepik--background-simple--inject-117">
	<path class="st0" d="M437.2,290.6c2.9-10.7,12.4-46.5,18.9-82.8c7.7-43.4,14.4-103.1-16.4-128.1s-71.3,4.8-92.5-4.8
		s-22.1-57.8-79-72.2s-88.6,35.6-113.7,62.6s-53,8.7-89.6,37.6c-36.2,28.6-5.5,158,21.3,187.8H437.2z"/>
	<path class="st1" d="M437.2,290.6c2.9-10.7,12.4-46.5,18.9-82.8c7.7-43.4,14.4-103.1-16.4-128.1s-71.3,4.8-92.5-4.8
		s-22.1-57.8-79-72.2s-88.6,35.6-113.7,62.6s-53,8.7-89.6,37.6c-36.2,28.6-5.5,158,21.3,187.8H437.2z"/>
	<path class="st2" d="M447.2,87.7h-78.5c-0.8,0-1.4,0.6-1.4,1.4v202c0,0.8,0.6,1.4,1.4,1.5h78.5c0.8,0,1.5-0.6,1.5-1.4v0v-202
		C448.7,88.3,448,87.7,447.2,87.7z M445.8,289.7h-75.6V90.6h75.6L445.8,289.7z"/>
	<path class="st2" d="M375.6,132.2h64.6c0.8,0,1.4-0.6,1.4-1.4c0,0,0,0,0,0V96.6c0-0.8-0.6-1.4-1.4-1.4c0,0,0,0,0,0h-64.6
		c-0.8,0-1.4,0.6-1.4,1.4c0,0,0,0,0,0v34.1C374.2,131.5,374.8,132.2,375.6,132.2L375.6,132.2z M377.1,98h61.8v31.2h-61.8V98z"/>
	<path class="st2" d="M375.6,180.6h64.6c0.8,0,1.4-0.6,1.4-1.4c0,0,0,0,0,0v-34.1c0-0.8-0.6-1.4-1.4-1.4c0,0,0,0,0,0h-64.6
		c-0.8,0-1.5,0.6-1.5,1.4c0,0,0,0,0,0v34.1C374.2,180,374.8,180.6,375.6,180.6C375.6,180.6,375.6,180.6,375.6,180.6z M377.1,146.5
		h61.8v31.3h-61.8L377.1,146.5z"/>
	<path class="st2" d="M375.6,229.1h64.6c0.8,0,1.4-0.6,1.4-1.4l0,0v-34.1c0-0.8-0.6-1.4-1.4-1.4l0,0h-64.6c-0.8,0-1.4,0.6-1.5,1.4
		v34.1C374.2,228.5,374.8,229.1,375.6,229.1z M377.1,195h61.8v31.2h-61.8V195z"/>
	<path class="st2" d="M375.6,277.6h64.6c0.8,0,1.4-0.6,1.4-1.4c0,0,0,0,0,0V242c0-0.8-0.6-1.4-1.4-1.4c0,0,0,0,0,0h-64.6
		c-0.8,0-1.4,0.6-1.4,1.4c0,0,0,0,0,0v34.1C374.2,276.9,374.8,277.6,375.6,277.6C375.6,277.6,375.6,277.6,375.6,277.6z M377.1,243.5
		h61.8v31.2h-61.8L377.1,243.5z"/>
	<path class="st2" d="M348.9,16H137.4c-0.8,0-1.4,0.6-1.4,1.4v105.3c0,0.8,0.6,1.4,1.4,1.4c0,0,0,0,0,0h211.4c0.8,0,1.4-0.6,1.4-1.4
		c0,0,0,0,0,0V17.4C350.3,16.6,349.7,16,348.9,16z M347.4,18.9v97.7H138.9V18.8L347.4,18.9z"/>
</g>
<g id="freepik--character-4--inject-117">
	<path class="st3" d="M396.4,224.3l-4.5,68.7c-0.1,0.7-0.7,1.3-1.4,1.3l0,0c-0.8,0-1.4-0.6-1.4-1.4c0,0,0,0,0-0.1l1.9-68.6H396.4z"
		/>
	<path class="st3" d="M408.1,224.3l4.5,68.7c0,0.7,0.6,1.3,1.4,1.3l0,0c0.8,0,1.4-0.6,1.4-1.4c0,0,0,0,0,0l-1.9-68.6L408.1,224.3z"
		/>
	<path class="st3" d="M362.5,224.3L367,293c0,0.7,0.6,1.3,1.4,1.3l0,0c0.8,0,1.4-0.6,1.4-1.4c0,0,0,0,0,0l-1.9-68.6L362.5,224.3z"/>
	<path class="st3" d="M343.9,224.3l-4.5,68.7c-0.1,0.7-0.7,1.3-1.4,1.3l0,0c-0.8,0-1.4-0.6-1.4-1.4c0,0,0,0,0,0l1.9-68.6
		L343.9,224.3z"/>
	<path class="st4" d="M423.1,155c0,0-45.4-1.7-49.2-1.7s-4.7,1.7-4.7,1.7l-6.5,45.7c0,0-20.1-5.8-24.1-5s2,29.4,2,29.4h22.8l0.4-1.7
		h51.5l13.7-65.1C428.1,155.3,423.1,155,423.1,155z"/>
	<path class="st4" d="M405.9,183.6c0,0,4.6,30-0.7,33.5c-0.8,0.5-5.3,3.1-9.4,2.7c-3.3-0.3-26.9,0-26.9,0s-3.3-6.2-3.9-10.8
		s4.5-24.3,4.5-24.3L405.9,183.6z"/>
	<path class="st5" d="M367.2,199.6c0,0-34.2,3.5-35.8,4.5s-9,7.4-7.7,11.6s-1.9,4.5,1,5.2s44.5,0.6,44.5,0.6"/>
	<rect x="336.1" y="219" class="st4" width="81.2" height="6.1"/>
	<path class="st5" d="M398.1,200.9h-48.9c0,0-2.6,2.9-2.9,9s0.3,7.4,4.8,9s44.6,0.8,44.6,0.8"/>
	<path class="st4" d="M359.6,278.5l-5.1-12.1l-8.4,1.6l6.4,10.8l-3.7,7.4l-8,5.2c0,0-0.9,0.9,3.1,0.6s12.3,0,12.3,0l5.2-6.1
		C361.4,285.9,363.3,282.8,359.6,278.5z"/>
	<polygon class="st3" points="361.8,283.8 362,291.8 360.8,291.8 359.1,287.8 	"/>
	<path class="st3" d="M356.2,292.1l5.2-6.1c0,0,1.4-2.3-0.5-5.6c-3.7,6.4-8.7,8.3-8.7,8.3l-5.2-1.2l-6.3,4.1c0,0-0.9,0.9,3.1,0.6
		S356.2,292.1,356.2,292.1z"/>
	<path class="st5" d="M339.5,216.7l17.1,51.9l-12.2,2.2l-24-54c0,0-1.9-8.1,3.2-10.6s20.3-3.9,20.3-3.9"/>
	<path class="st3" d="M394.5,225c0,0-5.9-28.7-2-29.4s24.1,5,24.1,5l6.5-45.6c0,0,6.8-1.1,7.6,5c0.7,6.1-13.4,65-13.4,65H394.5z"/>
	<path class="st4" d="M324.9,140.5l-3-5c-0.6-1-1.7-1.6-2.8-1.5l-2.9,0.1l-4.9-1.5c-0.6-0.2-1.3,0-1.7,0.6l-0.2,0.2l4.5,2l-4.5,1.7
		l-4.8-2.4c-0.4-0.2-0.9-0.1-1.1,0.3l0,0c-0.3,0.4-0.2,1,0.2,1.3l6.7,5.2c0.4,0.3,1,0.5,1.5,0.4l7.4-1.5l2.1,2.3L324.9,140.5z"/>
	<polygon class="st4" points="376.6,130.3 349.1,159 322.9,137.8 319.3,140.4 348.1,173.1 373.1,159.6 	"/>
	<path class="st4" d="M417.7,137.6l14.4,44.3l-12.4,0.4l-12.4-20.8C407.3,161.4,414.2,140.5,417.7,137.6z"/>
	<path class="st4" d="M402,130l15.7,7.6l-13.1,36.7l1.5,10.2l-36.7,0.1l4.4-16.5l-3-10.6c-0.4-1.4-0.4-2.8-0.1-4.2l5.9-23.1
		l15.4-2.5L402,130z"/>
	<path class="st4" d="M401.3,127.8c0,0,3.1,2.1,3.2,3.9c0,1.1,0,3-0.1,4.5c-0.1,1.1-0.3,2.3-0.8,3.3l-5.5,6.7l-6.4-5.1l-5.3,2.7
		c0,0-1-8.2,1.3-13.9S400.1,126.4,401.3,127.8z"/>
	<path class="st4" d="M405.7,112c0,0-1.3,4.5-1.9,7.5s-1.8,9-1.7,11.3s-9.4,11.8-10.5,10.4s-2.4-9.7-2.4-9.7l1.2-13.4
		C390.3,118,402.7,104.3,405.7,112z"/>
	<path class="st4" d="M385.9,105c0,0-1.7,2.8-1.7,4s0.6,3.6,0.5,4.3s-1.8,3-2,3.8c-0.2,0.7,0.1,1.4,0.7,1.7c0.4,0.2,0.8,0.4,1.2,0.7
		c0,0,0.5,6.2,1.3,7.8s1.5,2.3,3.9,2.5s8-2.3,8.8-4.3s0.9-4.4,1-7.3s-1.9-7-3.4-10.9S388.5,101.1,385.9,105z"/>
	<circle class="st3" cx="411.5" cy="117.7" r="7.6"/>
	<path class="st3" d="M385.8,104.6c0,0,3.1-2.6,8.6,2.6s3.4,12.9,7.1,14.5s10.5-6.3,11.3-10.3s-1.6-12.1-9-13.7
		S387.5,97.2,385.8,104.6z"/>
	<path class="st3" d="M385.8,104.6c-0.2-2.3,1.4-4.3,3.6-4.5c0.3,0,0.7,0,1,0c5,0.3,5.5,8.2,8.1,11.3s4,2.6,4,2.6s-4.5,1.3-7.4-0.3
		S390.9,103.3,385.8,104.6z"/>
	<path class="st6" d="M394,99.2c2.6,1.6,4.7,4,6,6.8c2.3,4.8,2.3,8.8,7.7,8.5c0,0-2.5,0.6-6.5-1.4s-4.8-7.6-7.4-9.9
		c-1.4-1.3-3.2-2.1-5.1-2.3"/>
	<path class="st6" d="M412.8,111.4c0,0-0.2,7.2-5.8,8.7"/>
	<path class="st4" d="M397.4,118.8c0,0,5.3-6.9,6.5-1.8s-3,6.4-5,5.8s-1.7-1.7-1.7-1.7"/>
	<path class="st4" d="M385.6,177.9c0,0-10.1,1.4-11.8,1.4s-5.9,5.3-5.9,5.3h18.5L385.6,177.9z"/>
	<path class="st4" d="M428.5,171.1l3.6,8.2c0.6,1.7-0.3,3.5-2,4.1c-0.3,0.1-0.6,0.2-1,0.2l-43.7,0.3l0.3-5.9l33.9-5.4"/>
	<polygon class="st3" points="370,283.8 370.2,291.8 368.9,291.8 367.3,287.8 	"/>
	<path class="st4" d="M367.7,278.5l-1.6-11.5l-8.4,0.5l2.9,11.4l-3.7,7.4l-8,5.2c0,0-0.9,0.9,3.1,0.6s12.3,0,12.3,0l5.2-6.1
		C369.5,286,371.4,282.8,367.7,278.5z"/>
	<path class="st3" d="M364.3,292.1l5.2-6.1c0,0,1.4-2.3-0.5-5.6c-3.7,6.4-8.7,8.3-8.7,8.3l-5.1-1.2l-6.3,4.1c0,0-0.9,0.9,3.1,0.6
		S364.3,292.1,364.3,292.1z"/>
	<path class="st5" d="M363.9,207.8l3.6,61.3l-11.4,0.3L345,213.7c0,0,0.2-10.6,3.6-11.8s12.4,0.1,12.4,0.1"/>
</g>
<g id="freepik--Table--inject-117">
	<path class="st3" d="M370,191.2l8.6,102.3c0.1,0.6,0.7,1,1.3,1c0,0,0,0,0.1,0c0.5-0.1,0.9-0.6,0.8-1.2l-5.9-102L370,191.2z"/>
	<path class="st3" d="M427.7,191.2l8.6,102.6c0.1,0.6,0.7,1,1.3,1c0,0,0.1,0,0.1,0c0.5-0.1,0.9-0.6,0.8-1.2l-5.9-102.4L427.7,191.2z
		"/>
	<path class="st3" d="M189.5,191.2L185,292.5c-0.1,0.5,0.3,1.1,0.8,1.2l0,0c0.6,0.1,1.2-0.2,1.3-0.8c0,0,0-0.1,0-0.2l7.3-101.7
		H189.5z"/>
	<path class="st3" d="M136.3,191.2l-4.5,101c0,0.6,0.3,1.1,0.9,1.2c0.6,0.1,1.2-0.2,1.3-0.8c0,0,0-0.1,0-0.1l7.2-101.3L136.3,191.2z
		"/>
	<rect x="133.1" y="185.5" class="st5" width="305.9" height="8.8"/>
	<rect x="133.1" y="185.5" class="st3" width="305.9" height="3"/>
	<rect x="362.4" y="185.5" class="st3" width="76.5" height="8.8"/>
	<rect x="130.4" y="182.6" class="st5" width="311.3" height="3.4"/>
	<rect x="365.6" y="182.6" class="st3" width="76.1" height="3.4"/>
	<path class="st4" d="M199.7,182.3h41.8c0.3,0,0.6-0.2,0.8-0.5l11.6-26.4c0.2-0.4,0-0.9-0.4-1.1c-0.1,0-0.2-0.1-0.3-0.1h-41.8
		c-0.3,0-0.6,0.2-0.7,0.5L199,181.1c-0.2,0.4,0,0.9,0.4,1.1C199.5,182.2,199.6,182.3,199.7,182.3z"/>
	<path class="st5" d="M203.6,180.2h35.6c0.3,0,0.5-0.2,0.6-0.4l9.9-22.5c0.2-0.3,0-0.8-0.3-0.9c-0.1-0.1-0.2-0.1-0.3-0.1h-35.6
		c-0.3,0-0.5,0.2-0.6,0.4l-9.9,22.5c-0.2,0.3,0,0.8,0.4,0.9C203.4,180.2,203.5,180.2,203.6,180.2z"/>
	<rect x="179.3" y="180.5" class="st4" width="62.8" height="2"/>
	<rect x="211.6" y="180.5" class="st4" width="30.4" height="2"/>
	<rect x="251.2" y="166.2" class="st4" width="11.1" height="16.4"/>
	<path class="st4" d="M261.7,180.4h-1.2c-0.5,0-0.9-0.4-0.9-0.9s0.4-0.9,0.9-0.9h1.2c1,0,1.7-0.8,1.7-1.7v-4c0-1-0.8-1.7-1.7-1.7
		h-1.5c-0.5,0-0.9-0.4-0.9-0.9s0.4-0.9,0.9-0.9h1.5c2,0,3.5,1.6,3.5,3.5v4C265.3,178.8,263.7,180.4,261.7,180.4L261.7,180.4z"/>
	<path class="st4" d="M348.7,182.3h-41.8c-0.3,0-0.6-0.2-0.7-0.5l-11.6-26.4c-0.2-0.4,0-0.9,0.4-1.1c0.1,0,0.2-0.1,0.3-0.1h41.8
		c0.3,0,0.6,0.2,0.8,0.5l11.6,26.4c0.2,0.4,0,0.9-0.4,1.1C348.9,182.2,348.8,182.3,348.7,182.3z"/>
	<rect x="306.4" y="180.5" class="st4" width="62.8" height="2"/>
	<rect x="306.4" y="180.5" class="st4" width="43.3" height="2"/>
	<path class="st4" d="M322.7,165.2c0.6,1.2,0.2,2.7-1,3.3c-1.2,0.6-2.7,0.2-3.3-1c-0.6-1.2-0.2-2.6,1-3.3
		C320.6,163.6,322.1,164,322.7,165.2z"/>
</g>
<g id="freepik--character-1--inject-117">
	<path class="st4" d="M127.4,87.6l3.1,30.4l14,40.5l-4.8,2.7l-16.4-37.1L115,92.3c0,0-0.7-9.6,2.7-11S126,81.4,127.4,87.6z"/>
	<path class="st4" d="M144.5,158.6c0,0,3.1,6.5,3.4,8.2s0.7,5.2-0.6,6.8c-1.6,1.9-3.1,0.4-3.1,0.4s-4.1-1-4.1-4.5s-0.3-8.2-0.3-8.2
		L144.5,158.6z"/>
	<line class="st7" x1="141.1" y1="168.8" x2="146.9" y2="170.3"/>
	<path class="st4" d="M142.5,164.9l1.6,2.6c0,0-3.8,6.5-1.8,4.8s5.9-3.8,5.5-5.5c-0.6-1.8-1.3-3.5-2.3-5.2"/>
	<path class="st3" d="M111,51c0,0-3.5-3.8-11.6-1.4s-10,15.4-9.8,21.9s6.5,13.8,4.6,17.1s-8.9,10.8-8.4,19s7.3,14.6,17.1,11.6
		s8.1-14.9,6.2-19.3s2.2-6.2,3.5-15.7s-7.3-17.3-7.3-24.1s7-5.7,7-5.7L111,51z"/>
	<path class="st6" d="M98.8,76.7c1.3,2.6,2.8,5.5,4.3,8.5c4.9,10.1,1.1,13.7-6.4,19.3s-5.8,12.4-3.9,13.5"/>
	<path class="st6" d="M108.4,53.7c0,0-10.1,0.9-12.7,7.3c-1.6,3.9-0.4,8.3,1.9,13.4"/>
	<path class="st6" d="M101.1,115.5c0.8,0.3,1.6,0.4,2.4,0.4"/>
	<path class="st6" d="M111,53c0,0-9.4,1.7-11.6,8.6s10.5,17,11.2,24.5s-8.4,11.8-11.6,17.6c-2.3,4.1-2,8.5,0.4,10.8"/>
	<path class="st4" d="M135.2,191.1c0,0-2.3,20.1-4.7,26.5s-7.6,56.9-7.9,59.8s7.6,9.6,10.8,11.7s1.8,2.6-1.8,2.9s-7.6-0.3-9.3-3.5
		s-5.8-4.1-5.8-4.1l-0.6,7h-1.2l-0.9-8.8c-0.3-2,0-4,0.9-5.8c1.5-3.2,2-9.9,2-19c0-9.1-1.8-23.6-0.9-30.6s4.4-12.3,4.4-18.1
		s0.3-14.6,0.3-14.6L135.2,191.1z"/>
	<path class="st3" d="M113.9,282.6c-0.2-1.5-0.1-3,0.4-4.5c1.8,3.1,7,7.2,11,8.9c2.2,0.9,4.5,1.3,6.9,1.2c0.5,0.4,0.9,0.6,1.3,0.9
		c3.2,2,1.8,2.6-1.8,2.9s-7.6-0.3-9.3-3.5s-5.8-4.1-5.8-4.1l-0.6,7h-1.2L113.9,282.6z"/>
	<path class="st4" d="M118.3,194.3c0,0-5,14.9-9.6,27.7s-15.8,42.3-16.9,47.5s-1.8,14.9-5,19.8s-6.4,7.3-5.8-1.5s5.8-15.2,7-21.9
		s1.8-30.9,5.8-41.7s8.5-19.5,9-22.8c0.4-3.2,0.6-6.4,0.6-9.6L118.3,194.3z"/>
	<path class="st3" d="M81.5,284.1c0,1.6,0.6,3.3,1.5,4.6c1.7,1.9,4.4-1.8,5.8-4c-0.5,1.6-1.1,3.1-2,4.6c-3.2,5-6.4,7.3-5.8-1.5
		C81.1,286.6,81.2,285.4,81.5,284.1z"/>
	<path class="st4" d="M116,76.9c0,0-1.8,1.5-2.9,11.4s6.1,40.8,6.1,40.8s-12.5,20.5-15.5,30.8s-4.7,48.5-4.7,48.5s6.1,2.3,18.7,3.2
		s19.3-2.3,19.3-2.3s0.6-54.6,0.6-63s0.6-27.5,1.5-29.9s3.5-8.5,3.5-10.8S125,78.4,125,78.4L116,76.9z"/>
	<path class="st3" d="M103.7,159.9c2.3-8,11.8-29.3,15.2-32.9c5.2,1.7,14.6,3.4,18.8,2.2c-0.1,3-0.2,14.2-0.2,17.1
		c0,8.5-0.6,63-0.6,63s-6.7,3.2-19.3,2.3s-18.7-3.2-18.7-3.2S100.8,170.1,103.7,159.9z"/>
	<path class="st3" d="M122.5,42.5c0,0,3.1-6.8,9.3-6.8c6.2,0,8.9,5.5,7.6,10.3s4.1,3.4,4.8,6.5s-4.5,5.1-7.2,5.1
		S122.5,42.5,122.5,42.5z"/>
	<path class="st6" d="M131.5,41.8c1.8-1,4-1.7,5-0.2c1.9,3-4.1,5.4-2.1,8.6s6.6,2.4,6.4,3.4s-3.2,1.7-3.2,1.7"/>
	<path class="st6" d="M128.4,44c0,0,0.6-0.5,1.5-1.1"/>
	<path class="st4" d="M138.3,58.4c-0.4-0.3-0.8-0.8-1-1.3c-0.5-3.7-1.6-7.3-3.6-9.4c-3.1-2.9-7-4.7-11.2-5.3
		c-1.2-0.2-2.5-0.1-3.7,0.3c-5.3,1.9-9.9,5.5-8.9,14.4c1.1,9.7,8.7,12.2,8.7,12.2l0.5,6l7.6,3.5l0.3-6.5c0,0,5.1,2.2,7,1.9
		s2.4-2.7,3.3-6.2c0.3-1.6,0.4-3.2,0.4-4.9l2.3-2.3C141.2,59.7,139.9,59.3,138.3,58.4z"/>
	<path class="st3" d="M109.9,57.2c-1-8.9,3.6-12.5,8.9-14.4c1.2-0.4,2.5-0.5,3.7-0.3c2.9,0.4,5.6,1.3,8.1,2.8
		c-1.5-0.3,1.1,4.2-1.3,7c-2.1,2.6-4.7,4.8-7.8,6.2c0,0-2.7-2.2-3.5,0.8s-0.5,5.1,1.6,5.7s3,0,3,0s-1.4,3.4-4,4.8v-0.5
		C118.6,69.4,111,67,109.9,57.2z"/>
	<polygon class="st4" points="130.6,77.2 129.1,85.1 113.6,76.9 115.1,69.6 	"/>
	<path class="st4" d="M123.1,143.6c1.6,0.3,3.2,0.6,4.9,0.7c1.3-0.1,3-1.5,4.3-0.9s3.1,4.5,3.1,4.5s1.7,0.9,1.2,1.8
		s-2.6,1.8-2.6,1.8s-2,1.9-3.2,2.1s-8.2-5-8.2-5L123.1,143.6z"/>
	<path class="st4" d="M123.8,147.4c0.9-1,0.7-2.6-0.3-3.5c-0.1-0.1-0.3-0.2-0.4-0.3l-19.4-18.2l21.2-32.9c2-3.7,0.6-8.3-3.1-10.3
		c-3.5-1.9-8-0.8-10.1,2.7l-18.3,36.4c-2,1.9-2.1,5.1-0.2,7.1l0.1,0.1c1.8,2.8,22.1,17.7,28,19.6
		C122.2,148.4,123.2,148.1,123.8,147.4z"/>
</g>
<g id="freepik--character-2--inject-117">
	<path class="st4" d="M200.7,97c0,0,2.5,7.8,2.5,9.3c0,1.1-0.1,2.2-0.3,3.3l2.2,3.4c0.3,0.5,0.1,1-0.3,1.3l-3.4,2c0,0-0.5,8-1,9
		s-9,0.8-9,0.8l-2.8,5.3l-14.3-5.5l3.8-10.3l-0.8-15.5C177.4,100,186.2,92.2,200.7,97z"/>
	<path class="st3" d="M190.9,115.9c0,0-2.5,2.3-4.4,2.5s-7.9-1.3-8.4-1.9s-4.7-9.4-4.5-13.6s0.3-10.4,4.8-12.5s11.7-1.4,15.4-3.7
		s9.7-4.2,12.8-0.2s0.8,9.7-1.7,12s-5.6,3-5.3,4s2.2,2.2,1.1,3.7s-5,3-5,3.6s0.9,2.8-0.1,3.1s-2.2-2.2-3.3-2.2
		S188.9,113.9,190.9,115.9z"/>
	<path class="st6" d="M184.4,108.7c-0.4,0.5-0.8,1.1-1.1,1.7"/>
	<path class="st6" d="M204.9,92.6c-0.4,3.5-2.5,6.5-5.7,8.1c-4,2.1-9.3,3.8-12.9,6.4"/>
	<path class="st6" d="M199.6,102.7c0,0-3.6,3-7.4,6.1c-2.6,2-5.5,3.6-8.6,4.8"/>
	<path class="st4" d="M190.7,116.3l2,0.5c-0.2,1.9,0.3,3.8,1.5,5.3"/>
	<line class="st7" x1="193" y1="110.9" x2="207.1" y2="107.4"/>
	<path class="st7" d="M203.5,107.2l3.2,0.1c0,0,1.1,3.6-2.2,4.1"/>
	<path class="st3" d="M189.2,280.1c0,0,13,8.2,15.3,8.2s3.4,2.1,2.3,2.3s-8.2,0.5-13,0.7s-8-0.2-10.7-0.2s-5.9,0.2-7.3-0.5
		s0.9-8.5,0.9-9.8S187.6,279.1,189.2,280.1z"/>
	<path class="st4" d="M206,288.6c-5.1,1.7-13.2,0.6-18.2,0.1c-3.9-0.4-10-0.4-12.5-0.5c-0.1,1.2,0,2.1,0.4,2.3
		c1.4,0.7,4.6,0.5,7.3,0.5s5.9,0.5,10.7,0.2s11.9-0.5,13-0.7C207.7,290.4,207.3,289.2,206,288.6z"/>
	<path class="st5" d="M199.5,223.7l-10.3,51.5l2.1,5.3c-1.5,2.2-3.9,3.8-6.5,4.4c-2.9,0.6-5.9,0.9-8.9,0.9c0,0-1.1-5.7-0.4-6.4
		s0.9-3.4,0.9-3.4l5.9-51.8L199.5,223.7z"/>
	<path class="st3" d="M230.8,278.3c0,0,8,6.6,11.6,7.8s7.5,2.3,7.5,3.4s-8.7,2.3-15.3,1.6s-16.7-3.6-18.9-3.6s-1.8-5.9-1.8-6.9
		S225.1,272.4,230.8,278.3z"/>
	<path class="st4" d="M250,289.5c0-0.4-0.5-0.8-1.3-1.2c-6.5,0.9-13.2,0.8-19.7-0.1c-6.6-0.9-12.1-2.2-14.9-2.9
		c0.2,1.2,0.7,2.2,1.6,2.2c2.3,0,12.3,3,18.9,3.6S250,290.6,250,289.5z"/>
	<path class="st5" d="M191.1,200.6c6.8-0.5,13.7-0.4,20.5,0.5c11.6,1.4,37.6,3,38.1,5.9s-20.2,64.7-20.2,66.3s1.8,3.2,2.3,4.1
		c0.3,0.6,0.4,1.3,0.5,2.1c0,0-5.6,6-9.9,7.6s-8,0.1-8.9,0.1s-0.9-6.2-0.2-9.1s1.8-10.5,2.1-11.2s12.7-44.6,12.7-44.6
		s-34,5.5-54.3,3.2s-22.4-5.5-23.5-10.3s1.1-14.4,1.1-14.4L191.1,200.6z"/>
	<path class="st7" d="M188.5,215.4c-0.5,0.7-1,1.3-1.5,1.9"/>
	<path class="st7" d="M194.7,203.1c-1.3,3.3-2.8,6.5-4.5,9.6"/>
	<path class="st7" d="M192,205.4c-2.8,4.5-6.9,8.1-11.9,10"/>
	<path class="st4" d="M243.8,218c0.8-0.3,1.5-0.6,2.2-0.9"/>
	<path class="st4" d="M228,222.3c4.4-0.8,8.7-1.9,13-3.3"/>
	<path class="st4" d="M254.4,146.5c0.5-1.9,1.3-1.8,0.6-2.4c-0.9-0.9-1.6,0.2-4.1,1.6s-5.1,3.2-5.1,3.2c0.1-0.5,0.3-1,0.6-1.4
		c0.6-1.1,1-2.3,1-3.5c0-1-0.8-0.8-1.1,0.2s-3.2,2.7-3.3,3.5s-0.7,3.9-0.7,3.9c-0.9,1.4-0.9,7.8-0.9,7.8l-18.5,13.9l-9.4,11
		c0,0,4.1,6.6,6.4,5.7s3.4-1.8,8.9-6.4c4.6-3.9,16.3-21.7,16.3-21.7c2-1.3,3.9-2.7,5.7-4.3c2.1-2.3,3.3-5.3,3.5-8.4
		C254.1,148.2,254.2,147.3,254.4,146.5z"/>
	<path class="st4" d="M168.6,125.4c0,0,1.8-6.6,9.2-5.3s13.2,7.5,14.5,9.7s-24.2-0.9-24.2-0.9L168.6,125.4z"/>
	<path class="st4" d="M211.8,183c0,0-1.7,1.9,0,4.8c1.2,2,3.3,3.6,7.3,2.9c3.8-0.7,9.4-10,9.4-16.6s-4.8-7-6.6-5.7
		S211.8,183,211.8,183z"/>
	<path class="st4" d="M171.9,124.6c0,0-17.8,8.4-20.3,10s-4.1,21.4-4.1,24.9s2.5,37,3.2,42.7s22.6,9.6,29.9,7.5s14.4-7.3,14.4-9.1
		s-0.7-17.3-0.2-20.3s4.6-15.5,4.6-15.5l12.5,19.9c0,0,1.3,2.4,5.9,0.5c6.6-2.7,7.2-13.3,7.2-13.3s-7.3-12.8-9.4-19.2
		s-3-11.2-3.9-12.3s-21.5-10.7-25.1-13.2C182.4,123.9,176.9,123,171.9,124.6z"/>
	<line class="st7" x1="199.3" y1="164.8" x2="193.4" y2="156.1"/>
	<line class="st7" x1="198.3" y1="163.5" x2="187.9" y2="158.4"/>
	<path class="st3" d="M167.4,229l9.1,64.8c0.1,0.6,0.6,1,1.2,0.9c0,0,0.1,0,0.1,0l0,0c0.5-0.1,0.9-0.6,0.8-1.2l-6.4-65.6L167.4,229z
		"/>
	<path class="st3" d="M141.1,229.5l-15.2,63.7c-0.1,0.6,0.2,1.2,0.8,1.3c0,0,0.1,0,0.1,0l0,0c0.5,0.1,1.1-0.3,1.2-0.8l17.7-61.8
		L141.1,229.5z"/>
	<path class="st3" d="M168.8,228.7l-9.7,64.7c-0.1,0.6,0.3,1.2,0.9,1.3c0,0,0.1,0,0.1,0l0,0c0.5,0,1-0.3,1.1-0.9l12.3-63.1
		L168.8,228.7z"/>
	<path class="st3" d="M203.2,229l9.1,64.8c0.1,0.6,0.6,1,1.2,0.9c0,0,0.1,0,0.1,0l0,0c0.5-0.1,0.9-0.6,0.8-1.2l-6.5-65.7L203.2,229z
		"/>
	<path class="st5" d="M126.7,161.7l11.1,72.2h78.9c0,0,1.2-20.8-2.3-28.1s-46.4,8.4-48,8c-1.1-0.3,0.6-37.5,2.7-52.1
		c0.6-3.9-2.2-7.6-6.1-8.2c-0.3,0-0.7-0.1-1-0.1h-28.1c-4,0-7.2,3.2-7.2,7.2C126.6,161,126.7,161.4,126.7,161.7z"/>
	<path class="st3" d="M214.4,205.7c-3.5-7.4-46.4,8.4-48,8c-1.1-0.3,0.6-37.5,2.7-52.1c0.7-3.8-1.8-7.4-5.6-8.1
		c-3.8-0.7-7.4,1.8-8.1,5.6c-0.2,0.9-0.2,1.7,0,2.6l11.1,72.2h50.3C216.8,233.9,217.9,213.1,214.4,205.7z"/>
	<path class="st4" d="M254.4,146.5c0,0-1.3,1.3-3.2,3.5"/>
	<path class="st4" d="M254.2,149.1c0,0-1.6,3.1-2.5,4.6"/>
</g>
<g id="freepik--Plants--inject-117">
	<path class="st8" d="M40.4,185.5c1.7,0.7,5.7,0.6,5.7,0.6s-0.9-2.6-1-2.8c-0.9-1.9-3.7-4.9-6-4.6c-1.5,0.2-2.5,1.6-2.3,3.1
		c0,0.1,0,0.2,0.1,0.3C37.3,183.7,38.9,184.9,40.4,185.5z"/>
	<path class="st8" d="M93.5,171.7c-2.3-0.3-5,2.9-5.9,4.8c-0.1,0.2-0.9,2.8-0.9,2.8l0,0c-0.4,0.5-0.9,1-1.4,1.6
		c-0.9,1.1-1.9,2.4-2.9,3.8c-1.1,1.5-2.1,3.1-3,4.8c-1,1.9-1.9,3.8-2.6,5.8c0,0,0,0,0,0.1c0-0.7,0-2.6,0-2.7c-0.3-2-2-5.9-4.3-6.3
		c-1.5-0.2-2.9,0.8-3.1,2.3c0,0.1,0,0.2,0,0.3c-0.1,1.6,1,3.3,2.2,4.3c1.3,1.2,4.9,2.3,5.2,2.4c-0.7,2.1-1.2,4.2-1.5,6.4
		c-0.2,1.2-0.4,2.5-0.6,3.8c0-0.6,0-1.1,0-1.2c-0.3-2-2-5.9-4.3-6.3c-1.5-0.2-2.9,0.8-3.1,2.3c0,0.1,0,0.2,0,0.3
		c-0.1,1.6,1,3.3,2.2,4.3s4.2,2.1,5,2.3c-0.1,0.5-0.1,1-0.2,1.5c-0.3,2.3-0.5,4.6-0.9,6.9c-0.1,0.8-0.3,1.6-0.4,2.4c0-0.5,0-1,0-1
		c-0.3-2-2-5.9-4.3-6.3c-1.5-0.2-2.9,0.8-3.1,2.3c0,0.1,0,0.2,0,0.3c-0.1,1.6,1,3.3,2.2,4.3c1.5,1,3.1,1.7,4.9,2.2
		c-0.2,0.8-0.3,1.6-0.5,2.4c-0.2,0.5-0.3,1-0.4,1.5s-0.3,1-0.5,1.5c-0.3,1-0.7,1.9-1.1,2.9c-0.3,0.6-0.5,1.3-0.7,1.9
		c0.1-0.8,0.3-2.4,0.3-2.5c0-1.8-0.5-3.6-1.4-5.2c0-0.2,0-0.4,0-0.6c-0.2-1.5-1.5-2.6-3-2.4c-0.1,0-0.2,0-0.3,0.1
		c-2.2,0.6-3.7,4.5-3.8,6.6c0,0.1,0.1,1.5,0.1,2.3c-0.1-0.5-0.2-1-0.3-1.5c-0.2-1-0.5-2-0.8-3c-0.2-0.5-0.3-1-0.5-1.5
		s-0.4-1-0.5-1.6c-0.4-1.2-0.9-2.4-1.5-3.6c0.9-0.2,3.9-1,5.2-1.9s2.5-2.5,2.5-4.1c0-1.5-1.1-2.8-2.6-2.8c-0.1,0-0.2,0-0.4,0
		c-2.3,0.3-4.3,3.9-4.7,5.9c0,0.1-0.2,1.6-0.2,2.4c-0.3-0.7-0.7-1.4-1-2.2c-1-2.1-2.1-4.1-3.2-6.2l-1-1.9c0.3-0.1,4-0.9,5.3-2
		s2.5-2.5,2.5-4.1c0-1.5-1.2-2.8-2.7-2.8c-0.1,0-0.2,0-0.3,0c-2.3,0.3-4.3,3.9-4.7,5.9c0,0.2-0.2,2.3-0.3,2.8
		c-0.7-1.4-1.4-2.8-2.1-4.2c-0.9-1.9-1.6-3.8-2.3-5.8c0.1,0,4-0.9,5.4-2c1.2-0.9,2.5-2.5,2.5-4.1c0-1.5-1.1-2.8-2.6-2.8
		c-0.1,0-0.2,0-0.4,0c-2.3,0.3-4.3,3.9-4.7,5.9c0,0.2-0.2,2.5-0.3,2.9c0-0.1-0.1-0.2-0.1-0.4c-0.6-2-1-4.1-1.2-6.1
		c-0.1-1.1-0.2-2.3-0.2-3.3c0.7-0.1,4-0.5,5.4-1.4s2.8-2.2,3-3.8c0.2-1.5-0.8-2.9-2.3-3.1c-0.1,0-0.2,0-0.3,0
		c-2.3,0-4.7,3.4-5.3,5.4c0,0.1-0.3,1.2-0.4,2c0-0.5,0-1,0-1.5c0-1.8,0.1-3.4,0.2-4.8c0.1-0.8,0.2-1.5,0.2-2.2
		c0.7-0.5,3.3-2.3,4.2-3.7s1.5-3.2,0.9-4.7c-0.5-1.4-2.1-2.2-3.5-1.7c-0.1,0-0.2,0.1-0.3,0.1c-2.1,1.1-2.6,5.2-2.3,7.2
		c0,0.2,0.8,2.9,0.8,2.9l0,0c-0.1,0.6-0.2,1.4-0.3,2.1c-0.1,1.4-0.3,3-0.3,4.8c-0.1,1.9,0,3.8,0.1,5.7c0.1,2.1,0.5,4.2,1,6.3
		c0,0,0,0,0,0.1c-0.4-0.6-1.4-2.1-1.5-2.2c-1.3-1.6-4.9-3.8-7-2.9c-1.4,0.6-2,2.2-1.4,3.6c0,0.1,0.1,0.2,0.1,0.3
		c0.8,1.4,2.7,2.1,4.2,2.4c1.7,0.3,5.3-0.8,5.6-0.9c0.6,2.1,1.3,4.1,2.2,6.1c0.5,1.1,1,2.3,1.6,3.4c-0.3-0.5-0.6-0.9-0.7-1
		c-1.3-1.6-4.9-3.8-7-2.9c-1.3,0.7-1.9,2.3-1.2,3.7c0,0.1,0.1,0.2,0.2,0.3c0.8,1.4,2.7,2.1,4.2,2.4s4.7-0.6,5.5-0.8
		c0.2,0.4,0.4,0.9,0.7,1.3c1,2.1,2.1,4.2,3.1,6.2c0.3,0.7,0.7,1.5,1,2.2l-0.6-0.8c-1.3-1.6-4.9-3.8-7-2.9c-1.4,0.6-2,2.3-1.3,3.6
		c0,0.1,0.1,0.2,0.1,0.3c0.8,1.4,2.7,2.1,4.2,2.4c1.8,0,3.6-0.3,5.3-0.8c0.3,0.8,0.6,1.5,0.8,2.3c0.2,0.5,0.4,1,0.5,1.5
		s0.3,1,0.4,1.5c0.2,1,0.5,2,0.7,3c0.2,0.7,0.3,1.3,0.4,2c-0.3-0.7-1-2.1-1.1-2.3c-1.1-1.8-4.3-4.5-6.5-3.9
		c-1.5,0.4-2.3,1.9-1.9,3.4c0,0.1,0.1,0.2,0.1,0.3c0.6,1.5,2.3,2.5,3.8,3c1.6,0.5,5.2,0,5.7,0c0.2,1.1,0.4,2.1,0.6,3.1
		c0.6,3.4,1,6.3,1.2,8.3c0,0.4,0.1,0.7,0.1,1h-7l2.5,49.6h11.9l2.5-49.6h-6.5l0.2-0.3c0.9-1.9,2.1-4.5,3.4-7.8
		c0.4-1,0.9-2.1,1.3-3.3c0.4,0.1,4,0.8,5.7,0.4c1.5-0.3,3.3-1.2,4-2.7c0.7-1.4,0.1-3-1.2-3.7c-0.1,0-0.2-0.1-0.3-0.1
		c-2.2-0.7-5.5,1.8-6.8,3.4c-0.1,0.1-0.7,1.3-1.2,2l0.5-1.4c0.3-1,0.7-1.9,1-3l0.4-1.5c0.2-0.5,0.3-1.1,0.4-1.6
		c0.3-1.3,0.5-2.5,0.8-3.8c0.8,0.3,3.8,1.3,5.4,1.2s3.5-0.7,4.4-2c0.9-1.2,0.6-2.9-0.6-3.8c-0.1-0.1-0.2-0.1-0.3-0.2
		c-2-1-5.7,0.9-7.2,2.4c-0.1,0.1-1,1.3-1.5,1.9c0.1-0.8,0.2-1.6,0.3-2.4c0.3-2.3,0.5-4.6,0.7-6.9c0.1-0.7,0.2-1.4,0.2-2.1
		c0.3,0.1,3.8,1.4,5.6,1.3c1.5-0.1,3.5-0.7,4.3-2c0.9-1.2,0.6-2.9-0.6-3.8c-0.1-0.1-0.2-0.1-0.3-0.2c-2-1-5.7,0.9-7.2,2.4
		c-0.1,0.1-1.4,1.8-1.8,2.2c0.2-1.6,0.3-3.1,0.6-4.6c0.3-2.1,0.8-4.1,1.3-6.1c0.1,0,3.8,1.4,5.6,1.3c1.5-0.1,3.5-0.7,4.3-2
		c0.9-1.2,0.6-2.9-0.6-3.8c-0.1-0.1-0.2-0.1-0.3-0.2c-2-1.1-5.7,0.9-7.2,2.4c-0.1,0.1-1.6,1.9-1.8,2.3l0.1-0.4
		c0.6-2,1.4-3.9,2.4-5.8c0.5-1,1.1-2,1.7-2.9c0.7,0.3,3.7,1.8,5.3,1.9s3.5-0.3,4.6-1.5c1-1.1,0.9-2.9-0.3-3.8
		c-0.1-0.1-0.1-0.1-0.2-0.2c-1.9-1.3-5.8,0.3-7.4,1.5c-0.1,0.1-0.9,0.9-1.5,1.5c0.3-0.4,0.5-0.8,0.8-1.2c1-1.5,1.9-2.7,2.8-3.9
		c0.5-0.6,1-1.2,1.4-1.7c0.8,0,4.1-0.1,5.5-0.8s3-1.9,3.3-3.5c0.5-1.4-0.2-3-1.7-3.5C93.9,171.8,93.7,171.7,93.5,171.7z M68.1,233.5
		c-1.4,3.2-2.7,5.8-3.6,7.6l-0.5,1h-0.2c0-0.4-0.1-0.7-0.2-1.2c-0.3-2-0.7-4.9-1.4-8.4c-0.2-1.1-0.5-2.3-0.7-3.4
		c1.1-0.4,2.1-0.9,3.2-1.5c1.4,1.2,2.9,2.2,4.6,3C68.9,231.6,68.5,232.6,68.1,233.5z"/>
	<path class="st8" d="M81.4,186.4c0,0,0.7-2.7,0.8-2.9c0.3-2-0.4-6.2-2.4-7.2c-1.4-0.6-3,0-3.6,1.4c0,0.1-0.1,0.2-0.1,0.2
		c-0.6,1.5,0.2,3.4,1,4.7C78,184.3,81.4,186.4,81.4,186.4z"/>
</g>
<g id="freepik--Floor--inject-117">
	<rect x="51.2" y="291.6" class="st8" width="406.8" height="5"/>
</g>
<g>
	<g id="logo_1_">
		<g id="tower_1_">
			<path class="st2" d="M264.7,70.4c-6.5-8-12.2-22-14.7-37.9c-2.5,15.9-8.1,29.9-14.7,37.9c-3.5-2.9-6.2-6.8-7.5-11.3
				c-0.4,0.2-0.7,0.4-1.1,0.7c1.4,4.6,4.1,8.6,7.8,11.6c0,0,0,0,0,0c0.9,0.7,1.8,1.4,2.7,1.9c0.6-1,1.2-2,1.8-3l8.6,5.6l0,0.3h0
				l-0.2,4.2L250,82l2.5-1.6l-0.2-4.2h0l0-0.3l8.6-5.6c0.6,1,1.2,2,1.8,3c1-0.6,1.9-1.2,2.7-1.9c0,0,0,0,0,0c3.8-3.1,6.6-7.4,8-12.3
				c0,0,0,0,0,0c0.4-1.5,0.7-3,0.8-4.5c-0.4-0.3-0.8-0.6-1.2-0.8c-0.1,1.8-0.4,3.6-0.9,5.3C270.8,63.6,268.2,67.5,264.7,70.4z
				 M243.4,61.6l3.9,1.8l-6,2.8C242,64.7,242.8,63.2,243.4,61.6z M247.9,72.9l-6.9-4.5l7.3-3.4L247.9,72.9z M248.5,61.9l-3.9-1.8
				l4.1-1.9L248.5,61.9z M248.7,56.8l-4.1,1.9c0.4-1.1,0.8-2.2,1.2-3.3L248.7,56.8L248.7,56.8z M248.8,55.3l-2.5-1.2l2.6-1.2
				L248.8,55.3z M246.5,53.1c0.2-0.7,0.4-1.3,0.6-2l1.9,0.9L246.5,53.1z M249,51.2l-1.8-0.8l1.8-0.9L249,51.2z M249.1,49l-1.7,0.8
				c1.2-4.7,2.1-9.2,2.5-14.7L249.1,49z M250.9,49.6L250.9,49.6l0-0.6l0,0l-0.8-13.9c0.4,5.5,1.3,10,2.5,14.7l-0.8-0.4l0.1,0.6
				l0.9,0.4l-1.8,0.8L250.9,49.6z M251.1,52.9L251.1,52.9l-0.1-1l0,0l1.9-0.9c0.2,0.7,0.4,1.4,0.6,2l-1.4-0.6l0.1,1l1.5,0.7
				l-2.5,1.2L251.1,52.9z M251.4,58.2L251.4,58.2l-0.1-1.4l0,0l3-1.4c0.4,1.1,0.8,2.2,1.2,3.3l-2.8-1.3l0.1,1.4l2.6,1.2l-3.9,1.8
				L251.4,58.2z M252.1,72.9l-0.4-7.9l0,0l-0.1-1.1l4.9-2.3c0.7,1.6,1.4,3.1,2.1,4.6l-5.4-2.5l0.2,2.2l5.5,2.6L252.1,72.9z"/>
			<path class="st2" d="M274.3,52.6c0-13.4-10.9-24.3-24.3-24.3c-13.4,0-24.3,10.9-24.3,24.3c0,1.5,0.1,3,0.4,4.5
				c0.4-0.3,0.8-0.5,1.1-0.8c-0.2-1.2-0.3-2.4-0.3-3.7c0-12.7,10.3-23,23-23c12.7,0,23,10.3,23,23c0,0.4,0,0.7,0,1.1
				c0.4,0.3,0.8,0.6,1.2,0.8C274.3,53.9,274.3,53.3,274.3,52.6z"/>
			<path class="st2" d="M226.1,57.1c0.2,0.9,0.4,1.8,0.7,2.7c0.4-0.2,0.7-0.4,1.1-0.7c-0.3-0.9-0.5-1.9-0.6-2.8
				C226.9,56.5,226.5,56.8,226.1,57.1z"/>
		</g>
	</g>
	<g class="st9">
		<path class="st2" d="M214.1,87.8v5.8h-1.9v-5.8H210v-1.5h6.3v1.5H214.1z"/>
		<path class="st2" d="M225,89.9c0,0.6-0.1,1.1-0.3,1.6s-0.5,0.9-0.9,1.2c-0.4,0.3-0.8,0.6-1.4,0.8c-0.5,0.2-1.1,0.3-1.7,0.3
			c-0.6,0-1.2-0.1-1.7-0.3c-0.5-0.2-1-0.4-1.3-0.8c-0.4-0.3-0.7-0.7-0.9-1.2s-0.3-1-0.3-1.6c0-0.6,0.1-1.1,0.3-1.6
			c0.2-0.5,0.5-0.9,0.9-1.2c0.4-0.3,0.8-0.6,1.3-0.8c0.5-0.2,1.1-0.3,1.7-0.3c0.6,0,1.2,0.1,1.7,0.3c0.5,0.2,1,0.4,1.4,0.8
			c0.4,0.3,0.7,0.7,0.9,1.2C224.9,88.8,225,89.3,225,89.9z M223,89.9c0-0.3-0.1-0.6-0.2-0.9c-0.1-0.3-0.3-0.5-0.5-0.7
			c-0.2-0.2-0.4-0.3-0.7-0.5c-0.3-0.1-0.6-0.2-0.9-0.2s-0.6,0.1-0.9,0.2c-0.3,0.1-0.5,0.3-0.7,0.5c-0.2,0.2-0.4,0.4-0.5,0.7
			c-0.1,0.3-0.2,0.6-0.2,0.9c0,0.3,0.1,0.6,0.2,0.9c0.1,0.3,0.3,0.5,0.5,0.7c0.2,0.2,0.4,0.4,0.7,0.5c0.3,0.1,0.6,0.2,0.9,0.2
			s0.6-0.1,0.9-0.2c0.3-0.1,0.5-0.3,0.7-0.5c0.2-0.2,0.4-0.4,0.5-0.7C222.9,90.6,223,90.3,223,89.9z"/>
		<path class="st2" d="M234.5,93.6h-1.9l-1.5-4.9h0l-1.5,4.9h-1.9l-2.2-7.3h2l1.2,4.8h0l1.4-4.8h2l1.4,4.8h0l1.3-4.8h2L234.5,93.6z"
			/>
		<path class="st2" d="M237.6,93.6v-7.3h5.3v1.5h-3.4v1.4h3.2v1.4h-3.2v1.5h3.6v1.5H237.6z"/>
		<path class="st2" d="M248.4,93.6l-1.7-2.9h-0.6v2.9h-1.8v-7.3h3c0.4,0,0.7,0,1.1,0.1c0.4,0.1,0.7,0.2,1,0.4s0.5,0.4,0.7,0.7
			c0.2,0.3,0.3,0.6,0.3,1c0,0.5-0.1,0.9-0.4,1.2c-0.3,0.3-0.7,0.6-1.2,0.7l2,3.1H248.4z M248.4,88.5c0-0.2,0-0.3-0.1-0.4
			c-0.1-0.1-0.2-0.2-0.3-0.2c-0.1-0.1-0.3-0.1-0.4-0.1c-0.2,0-0.3,0-0.4,0h-1v1.7h0.9c0.2,0,0.3,0,0.5,0c0.2,0,0.3-0.1,0.4-0.1
			c0.1-0.1,0.2-0.2,0.3-0.3C248.3,88.9,248.4,88.7,248.4,88.5z"/>
		<path class="st2" d="M260.4,91.5c0,0.4-0.1,0.7-0.3,1s-0.4,0.5-0.7,0.7c-0.3,0.2-0.6,0.3-1,0.4c-0.4,0.1-0.7,0.1-1.1,0.1h-3.1
			v-7.3h3.1c0.3,0,0.6,0,0.9,0.1c0.3,0.1,0.6,0.2,0.9,0.3c0.3,0.1,0.5,0.3,0.6,0.6s0.2,0.5,0.2,0.9c0,0.4-0.1,0.7-0.4,1
			c-0.2,0.3-0.5,0.5-0.9,0.6v0c0.2,0,0.4,0.1,0.6,0.2s0.4,0.2,0.5,0.4c0.1,0.1,0.3,0.3,0.3,0.5C260.4,91,260.4,91.2,260.4,91.5z
			 M258.3,88.4c0-0.2-0.1-0.4-0.3-0.5c-0.2-0.1-0.5-0.2-0.9-0.2h-0.9v1.5h1c0.4,0,0.6-0.1,0.8-0.2C258.2,88.9,258.3,88.7,258.3,88.4
			z M258.5,91.3c0-0.3-0.1-0.5-0.4-0.6c-0.2-0.1-0.6-0.2-1-0.2h-1v1.7h1.1c0.1,0,0.3,0,0.5,0c0.2,0,0.3-0.1,0.4-0.1
			c0.1-0.1,0.2-0.1,0.3-0.3C258.5,91.6,258.5,91.5,258.5,91.3z"/>
		<path class="st2" d="M267,93.6l-0.6-1.4h-3l-0.6,1.4h-2.1l3.3-7.3h1.8l3.2,7.3H267z M264.9,88.3l-1,2.5h2L264.9,88.3z"/>
		<path class="st2" d="M273.9,93.6l-1.7-2.9h-0.6v2.9h-1.8v-7.3h3c0.4,0,0.7,0,1.1,0.1c0.4,0.1,0.7,0.2,1,0.4
			c0.3,0.2,0.5,0.4,0.7,0.7c0.2,0.3,0.3,0.6,0.3,1c0,0.5-0.1,0.9-0.4,1.2c-0.3,0.3-0.7,0.6-1.2,0.7l2,3.1H273.9z M273.8,88.5
			c0-0.2,0-0.3-0.1-0.4c-0.1-0.1-0.2-0.2-0.3-0.2c-0.1-0.1-0.3-0.1-0.4-0.1c-0.2,0-0.3,0-0.4,0h-1v1.7h0.9c0.2,0,0.3,0,0.5,0
			c0.2,0,0.3-0.1,0.4-0.1c0.1-0.1,0.2-0.2,0.3-0.3C273.8,88.9,273.8,88.7,273.8,88.5z"/>
		<path class="st2" d="M282.3,93.6l-0.6-1.4h-3l-0.6,1.4h-2.1l3.3-7.3h1.8l3.2,7.3H282.3z M280.2,88.3l-1,2.5h2L280.2,88.3z"/>
		<path class="st2" d="M287.8,87.8v5.8h-1.9v-5.8h-2.2v-1.5h6.3v1.5H287.8z"/>
	</g>
	<g class="st9">
		<path class="st2" d="M223,103.8c-0.3,0.4-0.7,0.7-1.1,0.9c-0.5,0.2-1,0.4-1.6,0.4c-0.5,0-1.1-0.1-1.5-0.3
			c-0.5-0.2-0.9-0.4-1.2-0.8c-0.3-0.3-0.6-0.7-0.8-1.2c-0.2-0.5-0.3-1-0.3-1.5c0-0.6,0.1-1.1,0.3-1.5c0.2-0.5,0.5-0.9,0.8-1.2
			c0.3-0.3,0.7-0.6,1.2-0.8c0.5-0.2,1-0.3,1.5-0.3c0.2,0,0.5,0,0.7,0.1c0.3,0,0.5,0.1,0.7,0.2c0.2,0.1,0.4,0.2,0.6,0.3
			c0.2,0.1,0.4,0.3,0.5,0.5l-0.8,0.6c-0.2-0.2-0.4-0.4-0.7-0.6c-0.3-0.2-0.7-0.2-1-0.2c-0.4,0-0.8,0.1-1.1,0.2
			c-0.3,0.2-0.6,0.4-0.9,0.6c-0.2,0.3-0.4,0.6-0.5,0.9c-0.1,0.3-0.2,0.7-0.2,1.1c0,0.4,0.1,0.8,0.2,1.1c0.1,0.4,0.3,0.7,0.5,0.9
			s0.5,0.5,0.9,0.6c0.3,0.1,0.7,0.2,1.1,0.2c0.4,0,0.8-0.1,1.1-0.2s0.6-0.4,0.8-0.7L223,103.8z"/>
		<path class="st2" d="M228,104.9h-1v-7.2h2.3c0.3,0,0.7,0,1,0.1c0.3,0.1,0.6,0.2,0.8,0.3c0.2,0.2,0.4,0.4,0.6,0.6
			c0.1,0.3,0.2,0.6,0.2,0.9c0,0.5-0.2,1-0.5,1.3c-0.3,0.3-0.7,0.5-1.3,0.6l2,3.3h-1.2l-1.8-3.2H228V104.9z M228,100.9h1.2
			c0.2,0,0.5,0,0.7-0.1c0.2,0,0.4-0.1,0.5-0.2c0.2-0.1,0.3-0.2,0.4-0.4c0.1-0.1,0.1-0.3,0.1-0.5s0-0.4-0.1-0.5
			c-0.1-0.1-0.2-0.3-0.4-0.3c-0.1-0.1-0.3-0.2-0.5-0.2c-0.2,0-0.4-0.1-0.6-0.1H228V100.9z"/>
		<path class="st2" d="M237.2,104h3.8v0.9h-4.8v-7.2h4.6v0.9h-3.6v2.2h3.4v0.9h-3.4V104z"/>
		<path class="st2" d="M245.5,104.9h-1.1l3.1-7.2h0.9l3.1,7.2h-1.1l-0.7-1.8h-3.4L245.5,104.9z M246.6,102.3h2.7l-1.3-3.4
			L246.6,102.3z"/>
		<path class="st2" d="M257.3,104.9h-1v-6.3H254v-0.9h5.6v0.9h-2.3V104.9z"/>
		<path class="st2" d="M264.6,104.9h-1v-7.2h1V104.9z"/>
		<path class="st2" d="M271.7,103.6L271.7,103.6l2.2-5.9h1.1l-2.8,7.2h-0.9l-2.8-7.2h1.1L271.7,103.6z"/>
		<path class="st2" d="M279.8,104h3.8v0.9h-4.8v-7.2h4.6v0.9h-3.6v2.2h3.4v0.9h-3.4V104z"/>
	</g>
</g>
</svg>
