<?xml version="1.0" encoding="utf-8"?>
<!-- Generator: Adobe Illustrator 22.1.0, SVG Export Plug-In . SVG Version: 6.00 Build 0)  -->
<svg version="1.1" id="Layer_1" xmlns="http://www.w3.org/2000/svg" xmlns:xlink="http://www.w3.org/1999/xlink" x="0px" y="0px"
	 viewBox="0 0 491 429.8" style="enable-background:new 0 0 491 429.8;" xml:space="preserve">
<style type="text/css">
	.st0{fill:#ED6C48;}
	.st1{opacity:0.7;fill:#FFFFFF;enable-background:new    ;}
	.st2{fill:none;stroke:#263238;stroke-width:1.1031;stroke-linecap:round;stroke-linejoin:round;stroke-dasharray:4.4124;}
	.st3{opacity:0.5;fill:#FFFFFF;enable-background:new    ;}
	.st4{fill:#FFFFFF;stroke:#263238;stroke-width:1.1031;stroke-linecap:round;stroke-linejoin:round;}
	.st5{fill:#263238;}
	.st6{opacity:0.2;fill:#FFFFFF;enable-background:new    ;}
	.st7{fill:#ED6C48;stroke:#263238;stroke-width:1.1031;stroke-miterlimit:10;}
	.st8{fill:none;stroke:#263238;stroke-width:1.1031;stroke-miterlimit:10;}
	.st9{opacity:0.2;enable-background:new    ;}
	.st10{fill:#FFFFFF;stroke:#222221;stroke-width:1.1031;stroke-miterlimit:10;}
	.st11{fill:none;stroke:#263238;stroke-width:1.1031;stroke-linecap:round;stroke-linejoin:round;}
	.st12{fill:#FFFFFF;}
	.st13{fill:none;stroke:#263238;stroke-width:2.2062;stroke-linecap:round;stroke-linejoin:round;}
	
		.st14{opacity:0.2;fill:none;stroke:#FFFFFF;stroke-width:1.1031;stroke-linecap:round;stroke-linejoin:round;enable-background:new    ;}
	.st15{fill:none;stroke:#FFFFFF;stroke-width:1.1031;stroke-linecap:round;stroke-linejoin:round;}
</style>
<g id="freepik--background-simple--inject-9">
	<path class="st0" d="M461.5,166.7c-48.7-83.5-181-53.8-207.9-94.3c-13.8-20.8-29.3-44.9-51.7-57.4c-21.4-12-46.2-16.2-67.8-14.6
		C56.8,6,24.1,75,38.9,150.9C58.7,252.1,148.4,355.5,255,356.2c55.7,0.4,109-19.6,150.7-47.7l0.9-0.6
		C448.3,279.5,498.8,230.4,461.5,166.7z"/>
	<path class="st1" d="M461.5,166.7c-48.7-83.5-181-53.8-207.9-94.3c-13.8-20.8-29.3-44.9-51.7-57.4c-21.4-12-46.2-16.2-67.8-14.6
		C56.8,6,24.1,75,38.9,150.9C58.7,252.1,148.4,355.5,255,356.2c55.7,0.4,109-19.6,150.7-47.7l0.9-0.6
		C448.3,279.5,498.8,230.4,461.5,166.7z"/>
</g>
<g id="freepik--Lines--inject-9">
	<path class="st2" d="M83.2,172.8h-5.4c-12.1,0-21.9,9.8-21.9,21.9v120.3c0,12.1,9.8,21.9,21.9,21.9h74.4c12.1,0,21.9-9.8,21.9-21.9
		l0,0"/>
	<path class="st2" d="M168,59.2V35.5c0-7.4,6-13.4,13.4-13.4h96.7c7.4,0,13.4,6,13.4,13.4l0,0"/>
</g>
<g id="freepik--Shadow--inject-9">
	<ellipse class="st0" cx="255" cy="403" rx="191.5" ry="26.8"/>
	<ellipse class="st3" cx="255" cy="403" rx="191.5" ry="26.8"/>
</g>
<g id="freepik--Window--inject-9">
	<path class="st4" d="M435.5,91.1v180.1c0,12.3-9.9,22.2-22.2,22.2H96.7c-12.3,0-22.2-9.9-22.2-22.2V91.1c0-0.5,0-1,0.1-1.6
		C75.3,77.9,85,68.9,96.7,68.9h316.7c11.7,0,21.3,9,22.1,20.7C435.5,90.1,435.5,90.6,435.5,91.1z"/>
	<path class="st5" d="M85.3,97.9h340.6l0,0v166.3c0,11.5-9.3,20.8-20.8,20.8h-299c-11.5,0-20.8-9.3-20.8-20.8L85.3,97.9L85.3,97.9
		L85.3,97.9z"/>
	<path class="st6" d="M425.9,97.9v166.3c0.1,11.4-9.1,20.7-20.6,20.8H105.8c-11.4-0.1-20.6-9.4-20.6-20.8V97.9H425.9z"/>
	<path class="st7" d="M435.5,89.6H74.5C75.3,78,85,69,96.7,69h316.7C425,69,434.7,78,435.5,89.6z"/>
	<path class="st5" d="M118.9,79.2c0,2.2-1.8,3.9-3.9,3.9s-3.9-1.8-3.9-3.9s1.8-3.9,3.9-3.9S118.9,77.1,118.9,79.2L118.9,79.2z"/>
	<path class="st5" d="M135.5,79.2c0,2.2-1.8,3.9-3.9,3.9c-2.2,0-3.9-1.8-3.9-3.9s1.8-3.9,3.9-3.9C133.7,75.3,135.5,77.1,135.5,79.2
		L135.5,79.2z"/>
	<circle class="st5" cx="148.2" cy="79.2" r="3.9"/>
	<path class="st8" d="M425.9,97.9v166.3c0,11.5-9.3,20.8-20.8,20.8h-299c-9.9,0-18.5-7-20.4-16.8v-0.1c-0.3-1.3-0.4-2.7-0.4-4V97.9
		H425.9z"/>
	<path class="st5" d="M425.5,123.6c-1.5-0.8-3-1.5-4.6-1.9l-1.9-8.4h-7.9l-1.9,8.4c-1.6,0.4-3.2,1.1-4.6,1.9l-7.2-4.6l-5.6,5.6
		l4.5,7.2c-0.8,1.5-1.5,3-1.9,4.6l-8.4,1.9v7.9l8.4,1.9c0.4,1.6,1.1,3.2,1.9,4.7l-4.6,7.2l5.6,5.6l7.2-4.6c1.5,0.8,3,1.5,4.6,1.9
		l1.9,8.3h7.9l1.9-8.3c1.6-0.5,3.2-1.1,4.6-1.9l0.4,0.2v-37.8L425.5,123.6z M415.1,152.6c-5.7,0-10.3-4.6-10.3-10.3
		s4.6-10.3,10.3-10.3c5.7,0,10.3,4.6,10.3,10.3c0,0,0,0,0,0C425.4,148,420.8,152.6,415.1,152.6C415.1,152.6,415.1,152.6,415.1,152.6
		z"/>
	<path class="st5" d="M282.5,131.7v-16.7l-17.6-3.9c-0.9-3.4-2.3-6.7-4-9.8l2.1-3.4h-83.1l2.1,3.3c-1.7,3.1-3.1,6.4-4,9.8l-17.6,3.9
		v16.8l17.6,3.9c0.9,3.4,2.3,6.7,4,9.8l-9.7,15.2l11.9,11.8l15.2-9.7c3.1,1.7,6.4,3.1,9.8,4.1l3.9,17.6h16.7l3.9-17.6
		c3.4-1,6.7-2.3,9.7-4.1l15.2,9.7l11.8-11.8l-9.6-15.2c1.7-3.1,3-6.4,4-9.8L282.5,131.7z M221.5,144.9c-11.9,0-21.6-9.7-21.6-21.6
		s9.7-21.6,21.6-21.6c11.9,0,21.6,9.7,21.6,21.6C243.1,135.2,233.4,144.9,221.5,144.9C221.5,144.9,221.5,144.9,221.5,144.9
		L221.5,144.9z"/>
	<path class="st5" d="M171.4,246.6l0.7-13.3l-13.8-3.9c-0.6-2.7-1.6-5.4-2.8-7.9l8.3-11.7l-8.9-9.9l-12.5,7
		c-2.4-1.5-4.9-2.7-7.6-3.6l-2.4-14.1l-13.3-0.6l-3.8,13.8c-2.7,0.6-5.4,1.6-7.9,2.8l-11.7-8.3l-9.9,8.9l7.1,12.5
		c-1.5,2.4-2.7,4.9-3.6,7.6l-4,0.7v18l2.9,0.8c0.6,2.7,1.5,5.4,2.8,7.9l-5.7,8l0.4,6.9v0.1l5.9,6.6l12.5-7c2.4,1.5,4.9,2.8,7.6,3.7
		L114,285l0,0l0.1,0.6l13.3,0.7l0.3-1.3l0,0l3.5-12.5c2.7-0.6,5.4-1.6,7.9-2.8l11.6,8.3l9.9-8.9l-7-12.5c1.5-2.4,2.7-4.9,3.6-7.6
		L171.4,246.6z M136.1,225.9c-6.4-7.1-17.2-7.6-24.3-1.3c-7.1,6.4-7.6,17.2-1.3,24.3c6.4,7.1,17.2,7.6,24.3,1.3c0,0,0,0,0,0
		C141.9,243.8,142.4,233,136.1,225.9L136.1,225.9z"/>
	<path class="st5" d="M277.6,226.8c0.5-2.1,0.8-4.2,0.8-6.3l9.5-5l-2.6-9.7l-10.8,0.5c-1.1-1.8-2.4-3.5-3.9-5l3.2-10.3l-8.7-5
		l-7.3,7.9c-2.1-0.5-4.2-0.8-6.3-0.8l-5-9.6l-9.7,2.6l0.5,10.8c-1.8,1.1-3.5,2.4-5,3.9l-10.3-3.2l-5,8.7l8,7.3
		c-0.5,2.1-0.8,4.2-0.8,6.3l-9.6,5l2.6,9.7l10.8-0.5c1.1,1.8,2.4,3.5,3.9,5l-3.2,10.3l8.7,5l7.2-7.9c2.1,0.5,4.2,0.8,6.3,0.8l5,9.6
		l9.7-2.6l-0.4-9.2l-0.1-1.6c1.8-1.1,3.5-2.4,5.1-3.9l10.3,3.2l4.3-7.4l0.7-1.3L277.6,226.8z M254.7,232.7c-6.9,1.9-14.1-2.2-16-9.1
		c-1.9-6.9,2.2-14.1,9.1-16c6.9-1.9,14.1,2.2,16,9.1c0,0,0,0.1,0,0.1C265.7,223.7,261.6,230.8,254.7,232.7L254.7,232.7z"/>
	<path class="st5" d="M388.3,243.8l2.2-13.3l-13.5-5.4c-0.3-2.8-1-5.6-1.9-8.3l9.7-10.8l-7.8-11l-13.4,5.7c-2.2-1.8-4.6-3.3-7.2-4.5
		l-0.8-14.5l-13.3-2.2l-5.5,13.4c-2.8,0.3-5.6,1-8.3,1.9l-10.8-9.7l-11,7.8l5.7,13.4c-1.6,2-2.9,4.1-4,6.3c-0.1,0.3-0.3,0.6-0.5,0.9
		l-14.5,0.8l-2.2,13.3l2.2,0.9l11.3,4.5c0.3,2.8,1,5.6,1.9,8.3l-9.7,10.9l7.9,11l13.4-5.7c2.2,1.8,4.6,3.3,7.2,4.5l0.8,14.4
		l13.3,2.2l5.4-13.3c2.8-0.3,5.6-1,8.3-1.9l10.8,9.7l11-7.9l-5.7-13.4c1.8-2.2,3.3-4.7,4.5-7.3L388.3,243.8z M351,243.2
		c-7.8,5.6-18.7,3.8-24.3-4c-5.6-7.8-3.8-18.7,4-24.3c7.8-5.6,18.7-3.8,24.3,4c0,0,0,0,0,0C360.6,226.8,358.8,237.6,351,243.2
		L351,243.2z"/>
</g>
<g id="freepik--Graphics--inject-9">
	<path class="st7" d="M103.5,145.4h104.6c7.2,0,13.1,5.9,13.1,13.1v144.8c0,7.2-5.9,13.1-13.1,13.1H103.5c-7.2,0-13.1-5.9-13.1-13.1
		V158.5C90.4,151.2,96.3,145.4,103.5,145.4z"/>
	<path class="st9" d="M103.5,145.4h104.6c7.2,0,13.1,5.9,13.1,13.1v144.8c0,7.2-5.9,13.1-13.1,13.1H103.5c-7.2,0-13.1-5.9-13.1-13.1
		V158.5C90.4,151.2,96.3,145.4,103.5,145.4z"/>
	<path class="st4" d="M233.4,171.4v144.8c0,7.2-5.9,13.1-13.1,13.1c0,0,0,0,0,0H115.7c-7.2,0-13.1-5.9-13.1-13.1l0,0V171.4
		c0-7.2,5.9-13.1,13.1-13.1h104.6C227.5,158.3,233.4,164.2,233.4,171.4L233.4,171.4z"/>
	<path class="st7" d="M233.4,171.4v7.8H102.6v-7.8c0-7.2,5.9-13.1,13.1-13.1h104.6C227.5,158.3,233.4,164.2,233.4,171.4L233.4,171.4
		z"/>
	<rect x="114.9" y="188.1" class="st0" width="32.2" height="5.4"/>
	<rect x="114.9" y="236.5" class="st0" width="32.2" height="5.4"/>
	<rect x="114.9" y="280.4" class="st0" width="32.2" height="5.4"/>
	<rect x="114.9" y="201.5" class="st5" width="91.4" height="4"/>
	<rect x="114.9" y="209.1" class="st5" width="74.9" height="3.9"/>
	<rect x="114.9" y="216.5" class="st5" width="84.7" height="3.9"/>
	<rect x="114.9" y="224" class="st5" width="84.7" height="3.9"/>
	<rect x="114.9" y="245.4" class="st5" width="91.4" height="4"/>
	<rect x="114.9" y="253" class="st5" width="74.9" height="3.9"/>
	<rect x="114.9" y="260.4" class="st5" width="84.7" height="3.9"/>
	<rect x="114.9" y="293.6" class="st5" width="91.4" height="4"/>
	<rect x="114.9" y="301.1" class="st5" width="74.9" height="3.9"/>
	<rect x="114.9" y="308.6" class="st5" width="84.7" height="3.9"/>
	<path class="st10" d="M380.8,57.9v58.5c0,8.6-7,15.6-15.6,15.6c0,0,0,0,0,0H230.4c-8.6,0-15.6-7-15.6-15.6c0,0,0,0,0,0V57.9
		c0-8.6,7-15.6,15.6-15.6h134.8C373.8,42.3,380.8,49.3,380.8,57.9z"/>
	<path class="st7" d="M380.8,57.9v1.3H214.7v-1.3c0-8.6,7-15.6,15.6-15.6h134.8C373.8,42.3,380.8,49.3,380.8,57.9z"/>
	<path class="st5" d="M239.1,53.5c-0.9,0.9-2.5,0.9-3.4,0c-0.9-0.9-0.9-2.5,0-3.4s2.5-0.9,3.4,0c0,0,0,0,0,0
		C240,51.1,240,52.6,239.1,53.5z"/>
	<path class="st5" d="M250.2,53.5c-0.9,0.9-2.5,0.9-3.4,0c-0.9-0.9-0.9-2.5,0-3.4s2.5-0.9,3.4,0c0,0,0,0,0,0
		C251.2,51.1,251.2,52.6,250.2,53.5z"/>
	<path class="st5" d="M261.4,53.5c-0.9,0.9-2.5,0.9-3.4,0c-0.9-0.9-0.9-2.5,0-3.4s2.5-0.9,3.4,0c0,0,0,0,0,0
		C262.3,51.1,262.3,52.6,261.4,53.5z"/>
	<rect x="225.3" y="70" class="st2" width="54.3" height="46.9"/>
	<rect x="288" y="70" class="st5" width="62.5" height="3.3"/>
	<rect x="288" y="76.8" class="st5" width="47.9" height="3.3"/>
	<rect x="288" y="83.6" class="st5" width="71.4" height="3.3"/>
	<rect x="288" y="90.3" class="st5" width="60.8" height="3.3"/>
	<path class="st4" d="M354.8,203.1h30.6c3.6,0,6.5,2.9,6.5,6.5v17.9c0,3.6-2.9,6.5-6.5,6.5h-30.6c-3.6,0-6.5-2.9-6.5-6.5v-17.9
		C348.2,206.1,351.2,203.1,354.8,203.1z"/>
	<polyline class="st11" points="362.3,212.5 353.9,217.7 361.7,224.6 	"/>
	<polyline class="st11" points="377.6,225.1 385.1,218.7 376.4,213 	"/>
	<line class="st11" x1="366.4" y1="229.1" x2="372.6" y2="209.7"/>
</g>
<g id="freepik--Character--inject-9">
	<path class="st0" d="M301.9,398.1c0,0-29,8.3-33,9.8c-3.7,1.3-13.7,4.8-21.1,3.7c-0.7-0.1-1.4-0.3-2.1-0.5c-7.6-2.3-11-4.4-12-9.1
		s2.8-8.3,6.4-10.5s23.4-4.6,23.4-4.6l4.8,1.4l0,0L301.9,398.1z"/>
	<path class="st12" d="M247.7,411.5c-0.7-0.1-1.4-0.3-2.1-0.5c-7.6-2.3-11-4.4-12-9.1s2.8-8.3,6.4-10.5s23.4-4.6,23.4-4.6l4.8,1.4
		c-4.3,2-20.4,3.1-23.9,5.1s-5.2,5.8-3.1,11C242.2,407,245.1,409.7,247.7,411.5z"/>
	<path class="st11" d="M297.5,399.3c0,0-21.8,5.6-30.4,9.3s-25.1,5.2-31-2.3s-0.7-13.9,5.2-15.3s17.7-3.7,24.2-2.8"/>
	<path class="st11" d="M248.1,411.1c0,0-11.1-6.1-7.4-14.6c2.7-6.3,17.5-4.9,24.8-8.4"/>
	<path class="st0" d="M390.2,412.9c-0.3,3-1.4,5.8-4.4,7.6c-2,1.2-4.8,1.9-8.9,1.8c-10.2-0.1-29.3-7.4-29.3-7.4l-17.9-9.9l9.3-14.7
		l2.5-4l6.6,1.5c0,0,5.5,3.1,10.9,5.5s18.8,3,23.5,6.8S390.7,407.9,390.2,412.9z"/>
	<path class="st12" d="M390.2,412.9c-0.3,3-1.4,5.8-4.4,7.6c0.9-2.9,0.7-6.1-0.5-8.9c-2-4.5-8.5-8.5-17.1-9.1s-15.1-4.7-18.5-6.5
		c-2.7-1.4-8.3-4.4-10.7-5.7l2.5-4l6.6,1.5c0,0,5.5,3.1,10.9,5.5s18.8,3,23.5,6.8S390.7,407.9,390.2,412.9z"/>
	<path class="st11" d="M333.7,407.8c12.9,7.5,27.1,12.4,41.9,14.3c3.3,0.4,7,0.5,9.2-2c1.2-1.4,1.7-3.3,1.5-5.1
		c-0.4-4.6-4.3-8.2-8.5-10.1s-8.9-2.3-13.4-3.3c-4.5-1-8.8-2.6-12.9-4.7c-3.2-1.7-6.4-3.7-9.9-4.5s-7.8,0.2-9.7,3.3"/>
	<path class="st11" d="M383.6,421.3c3.4-1.6,5.8-4.8,6.5-8.5c0.6-4.3-1.8-8.7-5.3-11.4s-7.8-3.9-12.1-4.8s-8.7-1.5-12.8-3.1
		c-6.3-2.5-12.5-7.3-19-5.6"/>
	<path class="st0" d="M353.9,252.9l-30.3-11.5l-0.4-0.1c0,0,0.1-0.8,0.2-2c0.2-2.4,0.3-6.4-0.9-7.7c-1.7-2-6.5-0.3-11.1-2.5
		s-13.3,1.7-13.3,1.7s-6.2-1.1-9,3.4c-1.4,3.6-0.9,9-0.9,9l-0.6,0.2c-3.6,1.4-23.3,8.7-27.4,11.7c-4.6,3.3-9.7,36.6-11.3,46.4
		s-4.5,18.6-3.1,22s22.6,19.6,34.7,23.8s55.2,3,55.2,3s0.7-0.2,2-0.6c7.3-2.3,33.1-12,46.8-34.7C384.6,315,371.3,271.5,353.9,252.9z
		 M272.1,309c-2.2,1.6-1,7.7-1,7.7l-3.8-3.3l9.5-23.4l4.1,18C280.9,307.9,274.3,307.4,272.1,309z M348.2,323.9
		c-1,0.5,3-10.7,1.1-13.3s-7.7-2.3-7.7-2.3l0.5-3.1l3.4-17.6l1.1-1.4c0,0,11.8,20.2,13.9,27.3C360.5,313.6,347.7,323.9,348.2,323.9z
		"/>
	<path class="st12" d="M296.7,179.9l-15.6,16.6c0,0-2.1,1.9-1.3,6.7s2.9,9,4.4,9.3c1.2,0.2,2.4,0.3,3.6,0.3c0,0,3.4,7.3,5.7,10.1
		c0,0,0.8,11.2,0.4,14.3c0,0,5.6,4.9,10.9,5.5s13.5-7.5,13.5-7.5l2-9.9c0,0,4.8-7.3,5.1-9.2s2.5-1.4,3.6-2.4s3.6-5.2,4-9.3
		s0.4-8.7-4.3-7.3c-4.1-1.1-1.5-9.7-1.5-9.7l-7.1-6.3L296.7,179.9z"/>
	<path class="st3" d="M323.6,241.3c-0.2,0.6-0.5,1.2-0.8,1.8c-2.6,4.9-13.8,14.1-13.8,14.1l-3.4-10.5l-1.9,10.5
		c-3.8-1.6-15.2-11.5-15.2-11.5s-0.4-0.9-0.9-2.4l0.6-0.2c0,0-0.5-5.4,0.9-9c2.7-4.5,9-3.4,9-3.4s8.6-3.8,13.3-1.7s9.5,0.5,11.1,2.5
		s0.6,9.7,0.6,9.7L323.6,241.3z"/>
	<path class="st9" d="M353.9,252.9l-30.3-11.5l-0.4-0.1c0,0,0.1-0.8,0.2-2l-0.6,3.9l-4.5,6.1c4.8,1.8,9.5,3.8,14,6.2
		c4.4,2.4,7,7.2,6.4,12.2l-5.6,47.8l-2.3,27.1l6.9,7.2c7.3-2.3,33.1-12,46.8-34.7C384.6,315,371.3,271.5,353.9,252.9z M348.2,323.9
		c-1,0.5,3-10.7,1.1-13.3s-7.7-2.3-7.7-2.3l0.5-3.1l3.4-17.6l1.1-1.4c0,0,11.8,20.2,13.9,27.3C360.5,313.6,347.7,323.9,348.2,323.9z
		"/>
	<path class="st9" d="M282.9,310.6l-4.7-15.7c0,0-8.5-28.8-14.2-35.9l1.5,20.3c0,0-5,24.2-9.6,31.4s-5.6,9,0,9s19.2,10.8,19.2,10.8
		l-1-9L282.9,310.6z M271,316.7l-3.8-3.3l9.5-23.4l4.1,18c0,0-6.5-0.5-8.8,1.1S271,316.7,271,316.7z"/>
	<path class="st11" d="M293.5,222.9c0,0,0.9,8.5,0,12.4"/>
	<path class="st11" d="M319.1,234.1c0-2.7,0.3-5.5,0.9-8.1"/>
	<path class="st11" d="M321.4,186.2c0,0,5.1,6.4,4.9,11.3s-0.6,10.7-0.5,16.3s-9.1,17.5-13.8,18.6s-8.8,1.3-11.9-1.7
		s-6.1-7.2-10-12.6s-3-17.3-3-17.3"/>
	<path class="st11" d="M309,205.3c-0.3,1.8-0.4,3.6-0.4,5.4c-0.1,1.5,0.4,3,1.3,4.2c0.6,0.6,1.4,1,1.5,1.9c0,0.7-0.4,1.4-1.1,1.8
		c-0.6,0.3-1.3,0.7-1.9,1.1"/>
	<path class="st11" d="M300.9,220.2c0,0,0.6,3.8,5.7,4.6"/>
	<path class="st5" d="M301.4,208.2c0,1.1-0.5,2-1.1,2s-1.1-0.9-1.1-2s0.5-2,1.1-2S301.4,207.1,301.4,208.2z"/>
	<path class="st5" d="M316.7,208.7c0,1.1-0.5,2-1.1,2s-1.1-0.9-1.1-2s0.5-2,1.1-2S316.7,207.6,316.7,208.7z"/>
	<path class="st13" d="M313.6,203.9c0,0,5-5,9.2,0.6"/>
	<path class="st13" d="M303.1,204c0,0-3.2-3.5-8.1,0"/>
	<path class="st5" d="M293.9,227.6c0,0,3,8.4,9.9,10.8s15.9-10,15.9-10l-0.5-1.6c0,0-5.9,7.7-12.5,6.4s-13.1-10.3-13.1-10.3
		L293.9,227.6z"/>
	<path class="st11" d="M287.8,212.5c0,0-4.1,1.4-5.1-1.7s-4.8-11.5-1.5-14.3s5.8,3.7,5.8,3.7"/>
	<path class="st11" d="M325.7,214.2c0,0,3.8,0.8,4.9-2.4s4.8-11.5,1.5-14.3s-5.8,3.7-5.8,3.7"/>
	<path class="st5" d="M286.9,208.2c1.4-0.2,2.7-1,3.6-2.1c0.5-1,0.9-2.1,1-3.2c0.4-2.1,0.6-4.3,0.6-6.4c0-0.8,0-1.7,0.2-2.5
		c0.3-0.8,0.8-1.6,1.4-2.2c1.4-1.7,3.1-3.1,4.5-4.8c1.5-1.6,2.2-3.8,2-6c6.3,5.2,14.5,7.3,22.5,5.8c7.1-1.4,14-7.7,13.2-15.6
		c-0.3-2.7-2.3-4.9-5-5.5c-3.5-0.9-6.7,1-9.9,2.2c-5.8,2.2-11.5-1.6-17.4-2.2c-5-0.6-11.2,0.1-13.9,5.1c0,0-9,1.1-13,8.5
		s3.6,17.7,3.6,17.7s3-3.7,6.9,3.8L286.9,208.2z"/>
	<path class="st5" d="M322,184.3c0,0-2.3,12.2,3.8,18.1c0,0,1.3-3.7,2.7-4.6c2-4.4,1.6-9.5-1.1-13.5
		C322.9,177.2,322,184.3,322,184.3z"/>
	<path class="st14" d="M333.1,170.4c-1.1,3.4-3.7,6.1-7,7.3c-8.5,3.5-16.7-0.4-25.2-1.1c-6.9-0.6-14.6,5.6-15.1,12.8"/>
	<path class="st14" d="M280.6,187.4c0.2-5.7,3.7-10.8,9-13.1"/>
	<path class="st11" d="M291.5,234.1c3.7,3.9,8.2,7,13.2,9c0,0,10.1-3,15.3-10"/>
	<circle class="st11" cx="298.2" cy="208.2" r="9"/>
	<circle class="st11" cx="318.2" cy="208.3" r="9"/>
	<path class="st11" d="M293.5,230.8c-1.8,0.5-3.4,1.7-4.3,3.4c-1.6,2.8-0.6,11.6-0.6,11.6s8.2,8.1,15.2,11.5l2.1-11.6l3.2,11.6
		c0,0,10.8-7.6,13.8-14.1c0,0,1-7.5,0-10c-0.5-1.4-1.8-2.3-3.2-2.4"/>
	<path class="st11" d="M280.6,308.3c0,0-3.2-21.5-7.5-30.3"/>
	<path class="st11" d="M263.9,259c2.5,3.5,4.7,7.2,6.6,11.1"/>
	<path class="st11" d="M348.2,275c0.9-3.6,2-7.1,3.5-10.5"/>
	<path class="st11" d="M341.6,308.3c0,0,2.3-14.7,5.1-26.9"/>
	<path class="st11" d="M345.5,287.6c2.2-3,5.4-5.1,8.9-6.1"/>
	<path class="st11" d="M323.3,241.2c0,0,18.6,7.5,30.7,11.7c0,0,14.8,13.9,30.7,62.1c0,0-14.5,24.5-42.2,32.3"/>
	<path class="st11" d="M347.2,324.7l13.4-11.1c0,0,7.1-5.4,14.4-1.7"/>
	<path class="st11" d="M346.7,286.3c0,0,11,16.3,13.9,27.3"/>
	<path class="st11" d="M271.1,317.3l-3.9-3.7c0,0-5.8-1-12.4,3.4"/>
	<path class="st11" d="M267.2,313.6c0,0,4.9-16,9.6-24.2"/>
	<path class="st11" d="M288.3,243.2c0,0-26.8,10.1-29.4,13s-12.6,59.2-12.9,65.6c-0.2,5.8,20.7,18.7,31,24.1"/>
	<path class="st5" d="M308.3,262.2c0,1-0.8,1.8-1.8,1.8s-1.8-0.8-1.8-1.8s0.8-1.8,1.8-1.8c0,0,0,0,0,0
		C307.5,260.4,308.3,261.2,308.3,262.2C308.3,262.2,308.3,262.2,308.3,262.2z"/>
	<path class="st5" d="M339.3,356.4h-61c-0.8,0-1.4-0.6-1.4-1.4l0,0c0-0.8,0.6-1.4,1.4-1.4h61c0.8,0,1.4,0.6,1.4,1.4l0,0
		C340.8,355.7,340.1,356.4,339.3,356.4z"/>
	<path class="st4" d="M341.5,351.6l8.2-38.4c0.5-2.2-0.9-4.4-3.1-4.8c-0.3-0.1-0.6-0.1-0.9-0.1h-71.3c-2.3,0-4.1,1.8-4.1,4.1
		c0,0.3,0,0.5,0.1,0.8l7.3,37.1c0.4,1.9,2,3.2,3.9,3.3l55.8,1.3C339.3,354.9,341,353.5,341.5,351.6z"/>
	<path class="st5" d="M315.4,330.4c0,3.1-2.6,5.7-5.7,5.7c-3.1,0-5.7-2.6-5.7-5.7c0-3.1,2.6-5.7,5.7-5.7
		C312.9,324.7,315.4,327.3,315.4,330.4C315.4,330.4,315.4,330.4,315.4,330.4z"/>
	<line class="st11" x1="326.6" y1="311.9" x2="335.1" y2="311.9"/>
	<line class="st11" x1="286.2" y1="311.9" x2="318.3" y2="311.9"/>
	<path class="st5" d="M341.6,392.4l-6.5,17.1c0,0-16.6-4.2-37.8-8.5c-22.2-4.5-45.4-10.4-57.4-31.5c-1.5-2.6-2.4-5.6-1.8-8.5
		c1.7-7.3,11.2-9.3,17.5-10c3.9-0.4,7.9-0.6,11.8-0.7c2,0,8.6-1.1,10.3,0.1c2.4,1.8,5,3.3,7.7,4.6c3.5,1.5,55.4-1.4,55.4-1.4
		c0.9-2,1.5-4.1,1.6-6.2c8.1-4.1,27-7.6,35-6.1c12.5,2.4,19.8,9.7,18.5,17.4S366.8,386.8,341.6,392.4z"/>
	<path class="st15" d="M341.6,392.4c0,0-15.8-4.2-28.6-12.9s-22.9-18.8-40.9-16.7"/>
	<path class="st15" d="M310,377.4c8.1-2.3,14.1-7.6,20.6-12.7c6.9-5.5,14.3-10.4,22.1-14.5"/>
	<line class="st11" x1="307.1" y1="209.7" x2="309.5" y2="209.7"/>
</g>
</svg>
