<svg height="30px" xmlns="http://www.w3.org/2000/svg" viewBox="0 0 989.26 217.99"><defs><style>.cls-1{fill:#fbd9c4;}.cls-1,.cls-2,.cls-3{fill-rule:evenodd;}.cls-2{fill:#ec6b47;stroke:#ec6b47;stroke-width:0.57px;}.cls-2,.cls-3{stroke-miterlimit:22.93;}.cls-3{fill:#ee7c4f;stroke:#ee7c4f;stroke-width:0.5px;}.cls-4{fill:#2e122d;}.cls-5{isolation:isolate;}</style></defs><title>logo</title><g id="Layer_2" data-name="Layer 2"><g id="LOGO_VERTI" data-name="LOGO VERTI"><g id="logo"><g id="logo-2" data-name="logo"><g id="langit"><path class="cls-1" d="M55.62,86.69c6.3-4,12.59-11.08,18.89-15.85a4.31,4.31,0,0,1,5.16,0L82.59,73A445.7,445.7,0,0,0,95.23,16.32L97,5.06A93.58,93.58,0,0,0,6.22,113.38C23.93,100.79,40,89.71,45,85.87c2.36-1.82,9.09-1.7,10.67.82Z"/><path class="cls-1" d="M101.88,16.32A436.36,436.36,0,0,0,118.9,87c2.65-1.53,8.78-1.31,10.28,1.09l19.28-12.36a4,4,0,0,1,4.42.09c6.86,4.8,22.27,15.37,39.08,27.27.07-1.5.1-3,.1-4.51a93.51,93.51,0,0,0-91.94-93.5l1.76,11.26Z"/></g><g id="gunung_bawah" data-name="gunung bawah"><path class="cls-2" d="M36.52,168.53c12.16-14.92,22-33.06,29.83-50.75-14.1-4.69-24.87-10.09-28.52-9.26-1.91.43-14.26,7.54-29,16.31a93.61,93.61,0,0,0,27.73,43.7Z"/><path class="cls-2" d="M133.59,124c7.31,15.66,16.27,31.34,27,44.51a93.59,93.59,0,0,0,27.76-43.81c-15.71-1.22-29.86-6.58-48-7.37,3.23,2.45,6.4,4.84,9.45,7.13-5.2.92-11.16.25-16.22-.46Z"/></g><path id="gunung_atas" data-name="gunung atas" class="cls-3" d="M149.81,124.48c-3.05-2.29-6.22-4.68-9.45-7.13,18.12.79,32.27,6.15,48,7.37a93.16,93.16,0,0,0,3.6-21.66c-16.8-11.89-32.21-22.46-39.07-27.26a4,4,0,0,0-4.42-.09L129.18,88.07c-1.5-2.4-7.63-2.62-10.28-1.09q3.76,11.24,8.2,22.16c2,4.9,4.16,9.89,6.49,14.88,5.06.71,11,1.38,16.22.46Zm-141,.35a92.7,92.7,0,0,1-2.58-11.45C23.93,100.79,40,89.71,45,85.87c2.36-1.82,9.09-1.7,10.67.82,6.3-4,12.59-11.08,18.89-15.85a4.31,4.31,0,0,1,5.16,0L82.59,73A377.3,377.3,0,0,1,70,109.14q-1.74,4.29-3.66,8.64c-14.1-4.69-24.87-10.09-28.52-9.26-1.91.43-14.26,7.54-29,16.31Zm141-.35Z"/><g id="tower"><path class="cls-4" d="M158,170.71c-26.57-32.66-49.36-89.24-59.48-153.87C88.43,81.47,65.64,138.05,39.07,170.71A93.63,93.63,0,0,1,8.79,124.83l-4.47,2.66a98.62,98.62,0,0,0,31.5,47.08h0a98,98,0,0,0,11,7.9q3.75-5.88,7.33-12.07l35.1,22.8-.05,1h0l-.9,17.13L98.56,218l10.22-6.63-.9-17.13h0l-.06-1,35.1-22.8q3.59,6.19,7.33,12.07a97.08,97.08,0,0,0,11-7.9h0a98.54,98.54,0,0,0,32.28-49.75h0a98.06,98.06,0,0,0,3.22-18.32L192,103.07A93.31,93.31,0,0,1,158,170.71ZM71.87,135.1l15.66,7.28-24.3,11.3Q67.76,144.7,71.87,135.1Zm18.07,45.77L61.85,162.63l29.77-13.85Zm2.34-44.58L76.55,129l16.52-7.68Zm1.08-20.57-16.81,7.82q2.51-6.57,4.79-13.41l12,5.59Zm.33-6.31-10.1-4.69L94.2,99.79Zm-9.29-9q1.23-4.06,2.35-8.22l7.66,3.56ZM94.56,93l-7.11-3.31,7.46-3.47Zm.47-9.1-6.92,3.22a328.46,328.46,0,0,0,10-59.66Zm7.17,2.32h0l-.12-2.31h0L99,27.43a328.46,328.46,0,0,0,10,59.66l-3.21-1.49L106,88l3.63,1.69L102.56,93Zm.71,13.6h0l-.21-4h0l7.66-3.56q1.14,4.16,2.35,8.22l-5.63-2.62.43,4.08,6,2.8-10.1,4.69Zm1.13,21.5h0l-.29-5.57h0l12-5.59q2.28,6.84,4.8,13.41l-11.34-5.28.6,5.72,10.73,5-15.73,7.32Zm3.13,59.58-1.68-32.09h0l-.23-4.4,20-9.29q4.1,9.6,8.64,18.58l-22-10.23.91,8.73,22.47,10.45Z"/><path class="cls-4" d="M197.11,98.56A98.56,98.56,0,1,0,0,98.56a99.75,99.75,0,0,0,1.65,18.08l4.57-3.26A93.51,93.51,0,1,1,192.06,98.56c0,1.51,0,3-.1,4.51l4.84,3.43Q197.11,102.57,197.11,98.56Z"/><path class="cls-4" d="M1.66,116.63a97.77,97.77,0,0,0,2.66,10.86l4.47-2.66a91.86,91.86,0,0,1-2.57-11.45Z"/></g></g><g id="text_tb" class="cls-5"><g class="cls-5"><path class="cls-4" d="M272.63,16.05V70.7H254.79V16.05H233.94V1.85h59.54v14.2Z"/><path class="cls-4" d="M375.44,36a36.09,36.09,0,0,1-3,14.93A33.89,33.89,0,0,1,364,62.48a38,38,0,0,1-12.78,7.45,47.65,47.65,0,0,1-16.05,2.62,47.29,47.29,0,0,1-16-2.62,38.1,38.1,0,0,1-12.72-7.45,33.76,33.76,0,0,1-8.39-11.57A36.09,36.09,0,0,1,295,36a35.61,35.61,0,0,1,3-14.92,32.65,32.65,0,0,1,8.39-11.33,37.92,37.92,0,0,1,12.72-7.2,52,52,0,0,1,32.06,0A37.82,37.82,0,0,1,364,9.73a32.78,32.78,0,0,1,8.39,11.33A35.61,35.61,0,0,1,375.44,36Zm-19.09,0a22.27,22.27,0,0,0-1.56-8.36,19.35,19.35,0,0,0-11-11,22.25,22.25,0,0,0-8.6-1.61,21.86,21.86,0,0,0-8.55,1.61A20.64,20.64,0,0,0,320,21a18.92,18.92,0,0,0-4.33,6.66A23.07,23.07,0,0,0,314.12,36a23.14,23.14,0,0,0,1.57,8.61,19.52,19.52,0,0,0,10.95,11.18,23.51,23.51,0,0,0,17.1,0,20.4,20.4,0,0,0,6.67-4.42,19.64,19.64,0,0,0,4.38-6.76A23.13,23.13,0,0,0,356.35,36Z"/><path class="cls-4" d="M465.42,70.7H447.8L433.2,24.12h-.31L418.29,70.7H400.56l-21-68.85h19.19l11.68,45.8h.31l13.14-45.8h18.56l13.24,45.8H456l11.89-45.8h18.56Z"/><path class="cls-4" d="M494.09,70.7V1.85h49.63v14H511.29v13H542V42.21H511.29v14.3H545.6V70.7Z"/><path class="cls-4" d="M596.9,70.7l-16-27.33H574.8V70.7H557.38V1.85h28.16a52.32,52.32,0,0,1,10.37,1A27.82,27.82,0,0,1,605,6.33a18.64,18.64,0,0,1,6.41,6.41,19,19,0,0,1,2.4,9.92,17.45,17.45,0,0,1-4.07,11.77,22.47,22.47,0,0,1-11.25,6.81L617.75,70.7ZM596.17,23a6.53,6.53,0,0,0-1.1-3.93,7.34,7.34,0,0,0-2.83-2.34,13.11,13.11,0,0,0-3.88-1.12,31.47,31.47,0,0,0-4.14-.29h-9.53V31.32h8.49a30.37,30.37,0,0,0,4.5-.35,14.94,14.94,0,0,0,4.19-1.21A7.79,7.79,0,0,0,595,27.23,7,7,0,0,0,596.17,23Z"/><path class="cls-4" d="M710.14,50.67a17.56,17.56,0,0,1-2.4,9.48,18.28,18.28,0,0,1-6.37,6.17,28.49,28.49,0,0,1-9,3.36,52.32,52.32,0,0,1-10.37,1H652.58V1.85H682a48.28,48.28,0,0,1,8.75.83,27.13,27.13,0,0,1,8.14,2.82,16.81,16.81,0,0,1,5.94,5.39,15.18,15.18,0,0,1,2.29,8.66A13.67,13.67,0,0,1,703.77,29a18.68,18.68,0,0,1-8.75,5.4v.19a21.66,21.66,0,0,1,5.89,1.8,17.42,17.42,0,0,1,4.8,3.35,16.07,16.07,0,0,1,3.23,4.77A15.24,15.24,0,0,1,710.14,50.67ZM689.91,21.79A5.43,5.43,0,0,0,687,16.68q-2.87-1.61-8.49-1.6h-8.77v14.2h9.6c3.34,0,5.93-.64,7.77-1.9A6.34,6.34,0,0,0,689.91,21.79Zm2.4,27.32c0-2.85-1.15-4.82-3.44-5.93a21.47,21.47,0,0,0-9.18-1.66h-9.91V57.28h10a28.33,28.33,0,0,0,4.33-.34,14.21,14.21,0,0,0,4.07-1.21,7.88,7.88,0,0,0,3-2.48A7,7,0,0,0,692.31,49.11Z"/><path class="cls-4" d="M772,70.7l-5.74-13.52H737.66L732.24,70.7H712.85l31-68.85h17.31L791.78,70.7ZM752.16,20.23l-9.39,23.63h18.57Z"/><path class="cls-4" d="M837.44,70.7l-16-27.33h-6.08V70.7H797.93V1.85h28.15a52.32,52.32,0,0,1,10.37,1,28,28,0,0,1,9.08,3.46,18.73,18.73,0,0,1,6.41,6.41,19.05,19.05,0,0,1,2.39,9.92,17.49,17.49,0,0,1-4.06,11.77A22.46,22.46,0,0,1,839,41.24L858.3,70.7ZM836.71,23A6.53,6.53,0,0,0,835.62,19a7.37,7.37,0,0,0-2.84-2.34,13.13,13.13,0,0,0-3.87-1.12,31.59,31.59,0,0,0-4.14-.29h-9.53V31.32h8.48a30.5,30.5,0,0,0,4.51-.35,15.14,15.14,0,0,0,4.19-1.21,7.86,7.86,0,0,0,3.09-2.53A7,7,0,0,0,836.71,23Z"/><path class="cls-4" d="M917.11,70.7l-5.74-13.52H882.8L877.38,70.7H858L889,1.85h17.31L936.92,70.7ZM897.3,20.23l-9.39,23.63h18.57Z"/><path class="cls-4" d="M968.4,16.05V70.7H950.57V16.05H929.72V1.85h59.54v14.2Z"/></g></g><g id="text_creative" class="cls-5"><g class="cls-5"><path class="cls-4" d="M296.78,169.12a30.92,30.92,0,0,1-10.65,9,33.17,33.17,0,0,1-15.74,3.48A38.91,38.91,0,0,1,255.78,179a34,34,0,0,1-11.53-7.52,34.49,34.49,0,0,1-7.57-11.54,40.82,40.82,0,0,1,0-29.51A33.55,33.55,0,0,1,244.44,119a35.18,35.18,0,0,1,11.68-7.39,39.91,39.91,0,0,1,14.66-2.64,38,38,0,0,1,7.14.69,35.36,35.36,0,0,1,6.94,2,29.15,29.15,0,0,1,6.06,3.37,22.44,22.44,0,0,1,4.69,4.64L288,125.54a18.9,18.9,0,0,0-7.18-5.81,22.18,22.18,0,0,0-10-2.31,26.09,26.09,0,0,0-10.89,2.2,24.71,24.71,0,0,0-8.26,6,27.15,27.15,0,0,0-5.28,8.84,30.63,30.63,0,0,0-1.86,10.7,32.34,32.34,0,0,0,1.81,10.95,26.48,26.48,0,0,0,5.18,8.84,23.9,23.9,0,0,0,8.21,5.91,26.24,26.24,0,0,0,10.8,2.16,23.92,23.92,0,0,0,10.65-2.35,20.53,20.53,0,0,0,7.92-6.84Z"/><path class="cls-4" d="M344.86,179.88h-9.67v-69.2h22.18a42.12,42.12,0,0,1,9.48,1,23.34,23.34,0,0,1,7.87,3.27,16.1,16.1,0,0,1,5.33,5.92,18.81,18.81,0,0,1,1.95,8.94q0,7.62-4.69,12.31a21.86,21.86,0,0,1-12.12,6l19.35,31.76H372.81l-17.59-30.79H344.86Zm0-38.9H356a31.76,31.76,0,0,0,6.36-.59,16,16,0,0,0,5.13-1.9A10.61,10.61,0,0,0,371,124.61a9.74,9.74,0,0,0-3.38-3.37,14.93,14.93,0,0,0-4.93-1.81,32.7,32.7,0,0,0-6-.54H344.86Z"/><path class="cls-4" d="M433.41,171.28h36.16v8.6H423.73v-69.2H468.1v8.5H433.41v20.73h32.64v8.31H433.41Z"/><path class="cls-4" d="M513.84,179.88H503.09l30-69.2h8.8l29.71,69.2h-11l-7-17H520.78Zm10.36-25.51h25.9l-12.9-32.44Z"/><path class="cls-4" d="M627.41,179.88h-9.68v-60.7H595.54v-8.5H649.6v8.5H627.41Z"/><path class="cls-4" d="M697,179.88h-9.67v-69.2H697Z"/><path class="cls-4" d="M765.3,167.37h.29l20.82-56.69h10.46l-27.17,69.2h-9l-27-69.2h10.74Z"/><path class="cls-4" d="M843.29,171.28h36.16v8.6H833.62v-69.2H878v8.5h-34.7v20.73h32.65v8.31H843.29Z"/></g></g></g></g></g></svg>