<?xml version="1.0" encoding="utf-8"?>
<!-- Generator: Adobe Illustrator 22.1.0, SVG Export Plug-In . SVG Version: 6.00 Build 0)  -->
<svg version="1.1" id="Layer_1" xmlns="http://www.w3.org/2000/svg" xmlns:xlink="http://www.w3.org/1999/xlink" x="0px" y="0px"
	 viewBox="0 0 459.4 423.3" style="enable-background:new 0 0 459.4 423.3;" xml:space="preserve">
<style type="text/css">
	.st0{fill:#ED6C48;}
	.st1{opacity:0.7;fill:#FFFFFF;enable-background:new    ;}
	.st2{fill:none;stroke:#263238;stroke-linecap:round;stroke-linejoin:round;}
	.st3{fill:#263238;stroke:#263238;stroke-linecap:round;stroke-linejoin:round;}
	.st4{fill:none;stroke:#263238;stroke-width:3;stroke-linecap:round;stroke-linejoin:round;}
	.st5{opacity:0.2;enable-background:new    ;}
	.st6{fill:#4C4C4C;}
	.st7{fill:none;stroke:#263238;stroke-width:6;stroke-linecap:round;stroke-linejoin:round;}
	.st8{fill:none;stroke:#263238;stroke-width:2;stroke-linecap:round;stroke-linejoin:round;}
	.st9{fill:#FFFFFF;stroke:#263238;stroke-linecap:round;stroke-linejoin:round;}
	.st10{fill:#ED6C48;stroke:#263238;stroke-linecap:round;stroke-linejoin:round;}
	.st11{fill:#263238;}
	.st12{fill:#474747;stroke:#263238;stroke-linecap:round;stroke-linejoin:round;}
	.st13{fill:none;stroke:#7A7A7A;stroke-linecap:round;stroke-linejoin:round;}
	.st14{fill:#7A7A7A;stroke:#263238;stroke-linecap:round;stroke-linejoin:round;}
</style>
<g id="freepik--background-simple--inject-20">
	<path class="st0" d="M63.2,159.8c0,0-4.4,66.1,46.3,119.1s126.5,68.8,187.8,83.2s112.1-12.5,124.4-64s-33.2-74.8-52.9-139.1
		S353.4,75.5,303,29.6S165.6-7.8,115,48S63.2,159.8,63.2,159.8z"/>
	<path class="st1" d="M63.2,159.8c0,0-4.4,66.1,46.3,119.1s126.5,68.8,187.8,83.2s112.1-12.5,124.4-64s-33.2-74.8-52.9-139.1
		S353.4,75.5,303,29.6S165.6-7.8,115,48S63.2,159.8,63.2,159.8z"/>
</g>
<g id="freepik--Wallpaper--inject-20">
	<path class="st2" d="M136.3,36.4v297.4c0,7-2,14-5.8,19.9l-1.7,2.7c-4.4,6.9-11.1,12.2-18.9,14.9L-1.6,410.4h300.3l109-36.3
		c6.5-2.2,12.3-6.1,16.7-11.4l2.8-3.3c5.5-6.6,8.6-15,8.6-23.6V36.5"/>
	<path class="st3" d="M133.1,47L133.1,47c-2.1,0-3.9-1.7-3.9-3.9v-6.4c0-2.2,1.8-3.9,3.9-3.9l0,0c2.2,0,3.9,1.8,3.9,3.9v6.4
		C137,45.3,135.3,47,133.1,47z"/>
	<path class="st3" d="M437.9,32.8L437.9,32.8c2.2,0,3.9,1.8,3.9,3.9v6.4c0,2.2-1.8,3.9-3.9,3.9h0c-2.2,0-3.9-1.8-3.9-3.9v-6.4
		C434,34.6,435.7,32.8,437.9,32.8z"/>
	<line class="st4" x1="122" y1="35.5" x2="444.1" y2="35.5"/>
</g>
<g id="freepik--light-2--inject-20">
	<ellipse class="st5" cx="401.7" cy="398" rx="57.7" ry="14.9"/>
	<circle class="st6" cx="366.4" cy="98.6" r="38.6"/>
	<line class="st7" x1="401.5" y1="88.9" x2="401.5" y2="384.1"/>
	<path class="st3" d="M409.1,97l-21.3,5.9c-7,1.9-14.2-2.2-16.2-9.1l0,0c-1.9-7,2.2-14.2,9.1-16.2c0,0,0,0,0,0l21.3-5.9
		c7-1.9,14.2,2.2,16.2,9.1c0,0,0,0,0,0l0,0C420.2,87.8,416.1,95,409.1,97C409.1,97,409.1,97,409.1,97z"/>
	<polyline class="st7" points="357.6,403.5 400.6,288.6 453.1,405.2 	"/>
	<path class="st8" d="M416.1,81.2c0,0,14.4-0.9,14.4,18.9s-35.1,36.1-35.1,50.5s13.5,16.2,13.5,31.5s-9.9,9-11.7,25.2
		s12.6,42.9,8.1,54.7c-4.5,11.7-12.9,17.1-4.7,26.6"/>
</g>
<g id="freepik--light-1--inject-20">
	<ellipse class="st5" cx="50.5" cy="357.1" rx="50.5" ry="11.3"/>
	<line class="st7" x1="49.7" y1="129.9" x2="49.7" y2="356.5"/>
	<polyline class="st7" points="13.8,358 49,247.2 94.3,355.1 	"/>
	<polygon class="st3" points="78.5,61.4 62.7,99.5 62.1,155.8 78.5,188.6 	"/>
	<polygon class="st9" points="78.5,61.4 123.7,60.9 123.2,185.3 78.5,188.6 	"/>
	<path class="st3" d="M70,132.5l-21.9-0.3c-5.4-0.1-9.7-4.5-9.6-9.8l0,0c0.1-5.4,4.5-9.7,9.8-9.6l21.9,0.3L70,132.5z"/>
	<path class="st8" d="M44.1,124.1c0,0-9.9-2.7-9.9,12.6s18,30.6,19.8,46.9s-10.2,19.2-9.6,31.2s17.7,12,12.3,20.1l-5.4,8.1"/>
</g>
<g id="freepik--character-2--inject-20">
	<ellipse class="st5" cx="275.5" cy="376.4" rx="58.4" ry="10.9"/>
	<path class="st3" d="M270.8,99.5c-3.3-1.8-7.3-2.2-10.9-1c-6.5,1.9-15.7,6.3-16.1,9.8s4.8,6.1,4.8,9.4s1.5,14.8-2.3,24.4
		s-7.7,39.3-5.4,52.2s12.1,20.5,24.5,23s22.4-2.3,27-7.1s3.6-9.2,2.1-14.8s6.7-4.4,8.1-18.4s-6.1-21-7.7-26s-10.7-26.8-12.5-35.7
		S275.1,101.8,270.8,99.5z"/>
	<path class="st9" d="M288.2,155.3c2.5,0.2,4.6,2,5.2,4.4c1.2,4.3-0.3,11.3-2.5,16.6s-1.8,11.3-4.3,15.8s-2.7,6.4-6.6,5.9
		s-2.1-9-1.4-14.7s5.5-27.2,5.5-27.6S286.4,154.5,288.2,155.3z"/>
	<path class="st9" d="M241.4,147.4c0,0-5.3-1.9-8.1,5c-2.8,6.9-2,46-2,46s-3.9,15.8-6.3,23.3c-3.1,9.6-6.5,14.1-7.9,16.1
		c-1.4,2-9.7,9.4-9.7,11s3.6,4.2,3.6,4.2c-0.8,0.5-1.2,1.4-1,2.4c0.2,1.7,1.3,0.2,2.5-0.8s3.1-4,5.4-6.1s5.3-8.8,5.3-8.8
		s11.2-18,14-23.4c6.1-11.7,5.9-20.1,5.9-20.1s0-18.2,0.8-23.2s2.1-21.5,2.1-21.5S244.6,146.9,241.4,147.4z"/>
	<path class="st10" d="M223.7,237.6l-24.4,36.5c0,0,4,5.4,9.6,7.5S223.7,237.6,223.7,237.6z"/>
	<path class="st9" d="M212.5,248.3c0,0-2.5,4.9-2.5,6c0,1.1,0.2,3.1,1.9,1.5c1.7-1.7,2.7-4.2,4-5c1.8-1.3,3-3.2,3.3-5.4
		c0.1-1.3,0-2.7-0.4-4"/>
	<path class="st9" d="M236.3,290.5c-1.8,10.1-2.5,20.4-2,30.7c1,15.6,7.4,42.9,7.4,42.9s-8.9,9.7-12.4,12.1s1,2.7,4.2,2.5
		c3.2-0.2,8.7-4.7,10.9-5s4.5-0.5,4.5-3.7s-1.2-10.4-1.2-12.1s2.2-25.5,3.5-34.2s-0.8-21.5-0.8-24.3v-5.2
		C250.4,294.2,236.8,291.2,236.3,290.5z"/>
	<path class="st3" d="M236.3,290.5c0,0-0.4,2-0.9,5.4c4.1,1.4,9.9,3.3,15,4.5c0-0.4,0-0.8,0-1v-5.2
		C250.3,294.2,236.8,291.2,236.3,290.5z"/>
	<path class="st10" d="M248.9,370c-0.1-2-0.3-4-0.5-5.9c-1.8,1.9-3.2,1.7-3.2,1.7c-1-1.5-3.5-1.7-3.5-1.7s-8.9,9.7-12.4,12.1
		s1,2.7,4.2,2.5c3.2-0.2,8.7-4.7,10.9-5S248.9,373.2,248.9,370z"/>
	<path class="st9" d="M270.4,292.9c0,0,7.9,29,12.1,38.4s12.6,29.2,13.9,32.7s8.2,17,14.9,15.4c10.9-2.7-7.2-14.9-8.7-17.6
		s-5-13.6-5-18.8s-1.7-20.8-2.2-25.5s-5.2-14.6-6-18.6c-0.5-2.8-0.8-5.6-1-8.4C288.5,290.5,275.6,292.4,270.4,292.9z"/>
	<path class="st3" d="M288.5,290.5c0,0-12.9,2-18.1,2.5c0,0,0.5,2,1.4,5.1c5.1,0.1,12.4-0.2,17.2-1.9
		C288.6,293.1,288.5,290.5,288.5,290.5z"/>
	<path class="st10" d="M311.3,379.4c10.9-2.7-7.2-14.9-8.7-17.6c-0.1-0.1-0.1-0.2-0.2-0.3c-1.4,2-4,2.8-6.3,1.9l0.3,0.7
		C297.7,367.5,304.6,381.1,311.3,379.4z"/>
	<path class="st10" d="M264,105.1c0,0-14.3,6.7-15,7.7s0.6,11.1-0.4,14.6s4.1,14.6,5.9,15.8s4.9,0.4,4.9,0.4s-1.1,6.7-2.5,7.4
		s-10.7-2.8-12.2-3.2s-2.8,22.8-2.9,27.3s2.4,19.5,2.4,19.5s-16.4,36-17.5,37c-1.1,1-24.9,50-24.9,50s13.6,8.3,19.3,8.7
		c5,0.3,10,1,14.9,2.1c4.9,1.1,15.7,5.8,25.2,4.5s13.9-3.1,18.6-3.1s15-1,19.9-2.7s12.6-7,12.6-7l-15.4-45.9L279,196.7l7.1-41.9
		c0,0-10.5-0.8-11.9-1s-2.8,0.3-3.5-1.5s-0.6-14.7-0.6-14.7l1.5-7.6c1.6-4.2,2.2-8.7,1.8-13.2C272.8,109.7,266.6,104.8,264,105.1z"
		/>
	<path class="st2" d="M245.5,195.3c0,0,14.4,3.9,29.4,1.9"/>
	<line class="st2" x1="250.6" y1="193.4" x2="252.1" y2="196.6"/>
	<line class="st2" x1="261.8" y1="197.5" x2="263.8" y2="192.7"/>
	<line class="st2" x1="270.3" y1="197.8" x2="272" y2="194.9"/>
	<line class="st2" x1="257" y1="197.6" x2="255.9" y2="201.1"/>
	<line class="st2" x1="265.8" y1="198" x2="267.4" y2="201.7"/>
	<line class="st2" x1="231.7" y1="281" x2="243" y2="229.1"/>
	<line class="st2" x1="230.2" y1="286.8" x2="230.9" y2="284.3"/>
	<line class="st2" x1="288.9" y1="248.7" x2="290.7" y2="253.8"/>
	<line class="st2" x1="268.5" y1="290.1" x2="263.1" y2="204.8"/>
	<line class="st2" x1="272.2" y1="201.9" x2="287.2" y2="244"/>
	<path class="st10" d="M248.1,149.3l-8.4-4.1c0,2.2-0.2,4.5-0.5,6.7c-0.5,3.3,1.2,4.1,1.7,5.7s-1.7,1.2-2.2,3.8s1.9,3.6,1.9,5.7
		s-2.1,1.7-2.4,4.6s0.9,3.8,1.4,5.7s-1,1.7-0.5,4.6s4.3,4.8,4.3,4.8S241.9,163.1,248.1,149.3z"/>
	<path class="st10" d="M283.5,154.4h7c0.2,1.3-0.2,2.7-1,3.8c-1.4,1.7-2.6,2.4-2.8,4.5s0.7,4.6-0.5,6s-4,2.2-3.1,4.5
		s2.1,3.3,0.7,5.2s-2.4,1.9-1.9,3.6s1.2,3.4,0.5,4.3c-0.6,0.7-1.2,1.3-1.9,1.9C280.5,188.1,281.4,163.5,283.5,154.4z"/>
	<path class="st9" d="M261.3,163.3c5.7,0.5,9.3-5.5,11-9.6c-0.8-0.1-1.4-0.7-1.6-1.4c-0.7-1.8-0.6-14.7-0.6-14.7l1.5-7.6
		c1.6-4.2,2.2-8.7,1.8-13.2c-0.7-7.1-6.9-12-9.5-11.6c0,0-14.3,6.7-15,7.7s0.6,11.1-0.4,14.6s4.1,14.6,5.9,15.8s4.9,0.4,4.9,0.4
		s-1.1,6.7-2.5,7.4c-0.6,0.1-1.2,0.1-1.8-0.1C254.7,155,254.9,162.8,261.3,163.3z"/>
	<path class="st2" d="M255.2,121.7c0,0-0.5,3.1-1.5,3.9s-2.5,1.8-1.6,2.5c0.7,0.5,1.5,0.8,2.3,1"/>
	<path class="st2" d="M255.2,131.8c1.8,0.1,3.6-0.6,4.8-2"/>
	<path class="st11" d="M261.1,121.1c0,0.9-0.4,1.6-0.9,1.6s-0.9-0.7-0.9-1.6s0.4-1.6,0.9-1.6S261.1,120.3,261.1,121.1z"/>
	<path class="st11" d="M253.6,121c0,0.9-0.4,1.6-0.9,1.6s-0.9-0.7-0.9-1.6s0.4-1.6,0.9-1.6S253.6,120.1,253.6,121z"/>
	<path class="st2" d="M258.8,116.5c1.8-0.9,3.9-0.4,5.1,1.2"/>
	<path class="st2" d="M250.9,117.6c0,0,2.3-2.8,4-1"/>
	<path class="st9" d="M259.4,143.7c0,0,5.7-1.4,8.5-4.4"/>
	<path class="st3" d="M262.4,103.3c0,0,4.8,31.1,8.1,39.9s19,8.2,22.3,8.7s0-4.1-3.3-12.6s-7.3-31.4-10.5-35.9s-10.5-5.6-14-3.1"/>
	<path class="st9" d="M276.9,138.8c0,0,1.3-2.4,1.8-3.1s3.2-2.1,4-3s1.8-4.7,2.5-5.6s1.4-0.7,1.4,0.5s-0.7,4-0.7,4.6
		s2.8,1.1,1.9,2.3s-7.4,4.4-8.1,5.3S277.1,141.2,276.9,138.8z"/>
	<path class="st9" d="M285.4,132.9c0,0-8.4,3.6-8.4,5.8s-2.6,39.5-2.6,43s-0.4,11.3,1,13.4s5.5,5,8.1,1.6s3.6-9.4,3.1-15.1
		s-5.7-38.8-5.7-40.1s10-4.1,10.5-6c0.3-1-0.5-3.5-0.6-4.6c-0.1-1.1-1.1-1.8-2.1-1.7c-1.2,0.1-2.3,0.3-3.5,0.6
		c-1.9,0.5-1.5,1.2-1.5,2.1C283.5,134.2,285.4,132.9,285.4,132.9z"/>
</g>
<g id="freepik--character-1--inject-20">
	<ellipse class="st5" cx="83.6" cy="406" rx="64" ry="17.3"/>
	<path class="st3" d="M171.7,180.1h15.7c3.4,0,6.2,2.8,6.2,6.2v0.8c0,3.4-2.8,6.2-6.2,6.2h-15.7l0,0V180.1L171.7,180.1z"/>
	<path class="st3" d="M183.1,178.7H178v-4c-0.1-1.1-1.1-2-2.2-1.9h-8.9c-1.1-0.1-2.1,0.8-2.2,1.9v4h-4.8c-1.5-0.1-2.9,1.1-3,2.6
		v13.2c0.1,1.6,1.4,2.7,3,2.6h23.2c1.6,0.1,2.9-1.1,3-2.6v-13.2C185.9,179.8,184.6,178.6,183.1,178.7z"/>
	<rect x="167.1" y="175" class="st12" width="6.3" height="4.9"/>
	<path class="st9" d="M152.5,187.7c0,0,4.1-6.1,5.4-8.5s2.9-0.7,2.9,2s-1.2,4.1-2,6.1c-0.7,1.9,0.3,4.9,0.3,6.8s-2,3.2-4.1,4.1
		C152.8,199.1,151,192.3,152.5,187.7z"/>
	<path class="st9" d="M174.1,239.4c0,0,7.2,2.6,10.1-0.2s5.4-11.9,3.9-22c-1-6.5-2.5-13-4.5-19.3c0,0,5-3.4,5.2-5.2
		s-1.1-9.4-1.1-9.4s1.3-6-1.5-6.6c-2.9-0.6-3.4,3.1-4.9,4.2c-1.3,1-2.6,2.1-3.8,3.2c0,0,1.8-4.8,0.9-7.1s-4.3-4.1-4.4-2.1
		c-0.1,2,0.4,4.4-0.2,6.5c-0.6,2.1-3.1,8.3-2.4,10.9c0.7,2.6,3.4,8.5,3.8,11.9s-2.1,8.1-4.5,14C168.3,223.9,166.4,232.9,174.1,239.4
		z"/>
	<path class="st9" d="M151.3,159.9c-0.1,0.7,0.3,4.6-1.2,7.8c-1.5,3.2-2.4,3.4-3.9,7c-1.5,3.6-2.7,5.4-6.8,8.5s-6.3,3.2-10.9,2.7
		c-4.6-0.5-4.6-5.8-5.8-12.4s5.8-18.2,13.6-19.2C144,153.3,151.5,158.2,151.3,159.9z"/>
	<path class="st3" d="M138.9,168.9c0,0-1-9.5-5.4-7.5s-3.2,6.6-1.5,8.8c1.7,2.2,2.4,2.4,2.4,2.4c-2.4,1.2-5.1,1.9-7.8,2.2
		c-4.6,0.5-14.1-4.9-16.1-8s-1-25.1,7.1-28.9s17.8-4.4,20.9-0.3c0,0,5.1-5.6,10.2-1.9s1,6.6,2.2,8.8s7.3-1.7,9.2,5.1
		s-1.7,10.5-4.1,11.4c-2.4,1-4.1,1-5.8,0.3c-1.7-0.8-3.4,0.5-3.2,1.4s1.5,2.4-1.9,2.9S141.1,170.4,138.9,168.9z"/>
	<path class="st10" d="M163.9,229.2c0,0-2.4,4.1-1.5,5.1c1,1,6.1,7.5,12.4,6.8c6.3-0.7,9.5-11.2,9-16.3c-0.5-5.1-6.6-8.5-8.5-9.2
		C173.4,214.9,165.1,227.5,163.9,229.2z"/>
	<path class="st10" d="M96.8,382.9c0,0,11.2,5.5,15.4,5.7s6.8,1.9,7,3.4s-12.9,4-16.7,4.9s-8.4,0.2-12.9,1.9s-5.3-2.8-5.3-6.3
		c0-2.3,0.3-4.5,0.8-6.8C85.3,385.7,94.7,388.4,96.8,382.9z"/>
	<path class="st11" d="M116.6,389.6c-1.7,0.8-4.5,2-9.2,3.8c-7.1,2.8-16.8,3-22.6,3.1c0.6,2,2,3.3,4.8,2.3c4.4-1.7,9.1-1.1,12.9-1.9
		s16.9-3.4,16.7-4.9C119.1,391.1,118.2,390.3,116.6,389.6z"/>
	<path class="st2" d="M104.6,388.1c0,0-0.8,3.7-5.7,4.5c-2.8,0.4-5.5,1.1-8.2,2"/>
	<path class="st3" d="M99.6,265.7c0,0,0-10.3-7.2-14.7s-26.2,2.2-34.6,3.4c-4.9,0.7-9.7,2-14.3,3.8c0,0-2.9,10.6,0.5,18.4
		s18.4,22.8,21.2,25s14.3,14.4,14.3,14.4s1.3,31.5,2.2,38.7s3.4,33.7,3.4,35.3s4.7,2.5,7.2,1.3s5.3-3.1,5.6-12.5s2.8-57.5,2.8-57.5
		L99,274.1L99.6,265.7z"/>
	<path class="st3" d="M57.5,286.6l11.6,2.2l31.2,44c0,0-7.2,21.2-9.7,28.1s-17.2,36.9-17.5,39.7s0.3,8.1,5.9,6.6s7.2-5.3,7.2-5.3
		s40.6-62.1,41.5-65.6c0.9-3.4-3.1-10.6-10.6-31.5S100.3,261,100.3,261s0.6-2.5-6.6-6.3c-7.2-3.8-15.6-3.8-19.7-0.9"/>
	<line class="st13" x1="88" y1="367.9" x2="86.6" y2="371.8"/>
	<polyline class="st13" points="59.6,284.5 69,288.8 100.3,332.8 89.7,363.1 	"/>
	<path class="st14" d="M158.6,228c0,0,7.5,5.4,9,5.4c1.5,0,8.5-3.2,9.5-9.3c0.6-3.6-0.4-7.3-2.7-10.2c0,0-17-21.6-23.8-28.9
		s-12.6-10.7-22.9-15.1s-17.3-6.1-24.3-3.6S81.2,179.6,72,193.7c-7.5,11.5-14.1,23.5-19.7,36c-4.4,9.5-8.8,28.5-8.8,28.5
		s0.5,6.6,17.8,3.4s20.1-8.2,27.1-5.3c7.1,2.9,13.7,8.7,13.7,8.7s-2.2-12.6,5.1-19.5s22.4-17.5,26-23.6c2-3.2,3.8-6.6,5.4-10
		L158.6,228z"/>
	<line class="st2" x1="138.6" y1="212" x2="123.8" y2="200.5"/>
	<path class="st2" d="M123.1,204.4l11.4,4.9c0,0-17.9,14-41.6,15.8"/>
	<path class="st2" d="M84.2,219.9c-1.4-0.1-2.8-0.2-4.2-0.4"/>
	<path class="st2" d="M116.9,215.3c0,0-11.5,5.2-28.6,4.8"/>
	<path class="st2" d="M128.4,171.1c0,0-9.4-0.7-17.4,3.8s-12.2,7.3-12.2,7.3"/>
	<path class="st2" d="M111,172.5c0,0-11.1,1.7-18.5,7"/>
	<path class="st2" d="M72,239.4c8.7,3,18,3.9,27.2,2.4"/>
	<path class="st10" d="M87.8,398.4c0,0,13.1,5.3,16.9,5.3s4.9,3,4.9,5.3s-15.6,6.3-21.3,8.4s-15.4,3.6-19.6,2.5s4.6-20.5,4.6-20.5
		c1.9,2,4.6,3.3,7.4,3.4C85.6,403.2,87.8,398.4,87.8,398.4z"/>
	<path class="st11" d="M109.5,408.9c0-0.8-0.1-1.7-0.4-2.4c-7.2,3.4-14.7,6-22.5,7.8c-6.3,1.4-12.7,2.2-19.1,2.1
		c-0.2,1.9,0,3.2,1.1,3.5c4.2,1.1,13.9-0.4,19.6-2.5S109.5,411.2,109.5,408.9z"/>
	<path class="st2" d="M79.6,404.9c0,0,2.4,1.6,2,10.2"/>
	<path class="st2" d="M82.1,409.4c0,0,12.7,0,16.8-1.2s4.1-3.7,4.1-3.7"/>
</g>
</svg>
